<svg xmlns="http://www.w3.org/2000/svg" version="1.1" xmlns:xlink="http://www.w3.org/1999/xlink" xmlns:svgjs="http://svgjs.dev/svgjs" width="100" height="93.5"><svg version="1.1" id="SvgjsSvg1001" xmlns="http://www.w3.org/2000/svg" xmlns:xlink="http://www.w3.org/1999/xlink" x="0px" y="0px" viewBox="0 0 100 93.5" style="enable-background:new 0 0 100 93.5;" xml:space="preserve">
<path d="M38.6,82.4c-1.6-0.1-2.8-1.5-2.7-3.1c0.1-1.5,1.3-2.6,2.7-2.7c0.7,0,1.5,0.3,2,0.8c3.3-1.2,5.8-2.6,5.7-3.2
	c0-0.2-0.7-1.6-14.5-1.2c-0.9,1.3-2.7,1.7-4,0.8c-1.3-0.9-1.7-2.7-0.8-4c0.5-0.8,1.4-1.3,2.4-1.3c0.8,0,1.6,0.4,2.2,1l0,0
	c0.5-0.6,4.6-5.7,7.2-5.2c1.2,0.2,2.3-0.1,3.3-0.8c1.2-1.1,2.1-2.5,2.6-4.1c-2.2-0.6-9.4-3.5-10.5-5.7c-0.2-0.3-2-0.5-3.5-0.7
	c-6-0.7-18.5-2.1-27.2-16.1c-0.4-0.7-0.6-1.4-0.5-2.2c0-0.4,0.2-0.9,0.4-1.3c1.1-2.4,4.7-4.8,10.5-7.1l0.3-0.1
	c0.1-0.1,0.4-0.1,0.7-0.3c2.9-1,13-3.3,13.4-3.4h0.3h0.1c0.8,0.2,8,1.8,9.6,2.7c0.6,0.3,6.2,1.1,11.6,1.8c13,1.8,24,3.5,26.1,4.9
	c1.2,0.8,1.3,1,1.6,1.5c0.5,0.8,1.8,2.7,14.7,13.7c7,5.9,7.2,7,7.2,7.3c0.5,1.1,0.5,2.3,0,3.4c-0.8,1.2-2,2.1-3.4,2.5l-0.3,0.1
	l-0.2-0.2c-0.1-0.1-0.2-0.1-0.3-0.2l-0.1,0.2c-0.4,0.4-0.7,0.7-0.9,0.9l-0.2,0.2c-0.3,0.6-0.7,1.2-1.1,1.7c-2.8,4-6.8,6.9-11.4,8.4
	l-1.1,0.3l0.6,0.1c0.9,0.1,1.8,0.2,2.8,0.4h0.1c0.9,0.1,1.7,0.4,2.4,0.9c0.7,0.4,1.1,1.2,0.8,2c-0.4,1.8-0.9,3.6-1.7,5.2
	c0,0.1-0.1,0.2-0.2,0.3l-0.2,0.2h-0.2l-1.4,0.1c-1,0.1-2.4,0.1-4.1,0.2h-0.2c-10.9,0.4-24.6,0.1-28.3-3.7L41.5,80
	C41.2,81.4,40,82.4,38.6,82.4z M40.2,78.7c-0.3-0.6-1-1-1.7-0.9c-1,0-1.7,0.8-1.7,1.8c0,1,0.8,1.7,1.8,1.7s1.7-0.8,1.7-1.8
	c0,0,0,0,0,0v-0.4L51,76l0.2,0.3c2.3,2.9,12.4,4.2,27.7,3.6H79c1.6-0.1,3-0.2,4-0.2l1.1-0.1c0.7-1.6,1.2-3.2,1.5-4.8
	c0-0.2,0.1-0.4-0.4-0.7c-0.6-0.3-1.2-0.6-1.9-0.7h-0.1c-0.9-0.2-1.9-0.3-2.7-0.4c-1.8-0.2-2.6-0.3-2.7-1s0.7-1,1.3-1.2
	c0.4-0.1,0.9-0.3,1.6-0.5c3.3-1,6.3-2.9,8.7-5.4c-1.4-1-23.8-17.8-43.1,2.7l0,0l0.2,2.1c0.2,0.6,0.5,1.2,0.9,1.8l0.1,0.2v0.2h-0.5
	v0.6h-0.6L31,70.9l-0.1-0.3c-0.4-0.9-1.5-1.2-2.3-0.7c-0.9,0.4-1.2,1.5-0.7,2.3c0.3,0.6,0.9,0.9,1.5,0.9c0.7,0,1.3-0.4,1.6-1
	l0.2-0.3h0.5c13.5-0.4,15.6,0.9,15.9,2.2c0.3,1.8-3.8,3.6-6.1,4.4 M35.8,70.1L46.1,71c-0.3-0.4-0.4-0.9-0.5-1.4l-0.2-2
	c-0.4-0.1-0.9,0-1.3,0.2C41.6,68.7,37.8,69.6,35.8,70.1L35.8,70.1z M32.8,69.8l0.3,0.3h1l0.5-0.3c0.1,0,5.7-1.9,9.1-3
	c0.7-0.3,1.4-0.3,2.1-0.2c20.1-21.3,44.2-2.9,44.5-2.7l0,0c0.5-0.5,0.9-1.1,1.3-1.6c0.4-0.5,0.8-1.1,1.1-1.7
	c0.1-0.1,0.2-0.2,0.3-0.3c0.2-0.2,0.5-0.5,1-1c0.4-0.5,1.1-0.6,1.7-0.2c1-0.3,1.8-0.9,2.4-1.8c0.3-0.8,0.3-1.8-0.1-2.5l-0.2-0.4l0,0
	c-0.3-0.5-1.6-2.1-6.7-6.4C78,37,76.8,35,76.2,34.1c-0.2-0.3-0.3-0.5-1.3-1.1c-2.1-1.4-16.3-3.4-25.7-4.7c-8-1.1-11.3-1.6-12-2
	c-1.4-0.8-7.9-2.3-9.3-2.6C26.7,24,17.4,26.2,14.8,27c-0.2,0.1-0.4,0.2-0.5,0.2l-0.4,0.1c-7.3,2.9-9.3,5.3-9.9,6.5
	c-0.1,0.3-0.2,0.6-0.2,0.9c0,0.5,0.1,1.1,0.4,1.5C12.6,49.7,24.3,51,30.6,51.8c2.6,0.3,4,0.5,4.4,1.3c1,1.9,8.9,5,10,5.2
	c0.1,0,0.3,0,0.4,0.1c0.5,0.2,0.4,0.7,0,1.7c-0.5,1.4-2.5,6.1-7,5.3C37.1,65.2,34.4,67.8,32.8,69.8L32.8,69.8z"></path>
<path d="M14.1,27.1l-0.2-0.5c-0.3-0.8-0.5-1.6-0.5-2.4c0-3.9,3.4-7,7.6-7c3.5-0.1,6.6,2.3,7.4,5.6l0.1,0.6l-0.8,0.1
	c-1.5,0.3-10.5,2.5-13.1,3.4L14.1,27.1z M21,18.4c-3.5,0-6.4,2.6-6.4,5.8c0,0.5,0.1,1,0.2,1.5c3-0.9,10.2-2.6,12.3-3.1
	C26.2,20,23.7,18.3,21,18.4z"></path>
<path d="M25.8,46.7c-4.2,0-7.6-3.1-7.6-7s3.4-7,7.6-7s7.6,3.1,7.6,7S30,46.7,25.8,46.7z M25.8,33.9c-3.5,0-6.4,2.6-6.4,5.8
	s2.9,5.8,6.4,5.8s6.4-2.6,6.4-5.8S29.3,33.9,25.8,33.9z"></path>
<path d="M46.6,72.1c-0.1-0.3,0-1.1,3.2-4.3c3.6-3.6,18.6-0.5,20.3-0.2l10,4V72l0.7,0.1c0.9,0.1,1.8,0.2,2.8,0.4h0.2l2.3,0.8
	c0.7,0.4,1,1.2,0.8,2l0,0c-0.4,1.8-0.9,3.6-1.7,5.2L85,80.8h-0.3L83.5,81l-0.5,0.1c-1.1,0.2-2.1,0.2-3.2,0.2h-0.9
	c-12.3-0.4-30.3-8-31.9-8.7 M79.1,80.1c1.3,0.1,2.6,0,3.9-0.1h0.4l0.9-0.2c0.6-1.5,1.1-3.1,1.5-4.7c0-0.2,0.1-0.4-0.3-0.7l-2-0.7
	c-0.9-0.2-1.9-0.3-2.7-0.4c-1.8-0.2-2.6-0.3-2.7-1c0-0.2,0-0.4,0.1-0.5l-8.3-3c-4.4-0.9-16.5-2.8-19.2-0.1c-1,0.9-2,1.9-2.8,3
	C51,73,67.5,79.8,79.1,80.1L79.1,80.1z"></path>
</svg><style>@media (prefers-color-scheme: light) { :root { filter: none; } }
@media (prefers-color-scheme: dark) { :root { filter: invert(100%); } }
</style></svg>