<svg xmlns="http://www.w3.org/2000/svg" version="1.1" xmlns:xlink="http://www.w3.org/1999/xlink" xmlns:svgjs="http://svgjs.dev/svgjs" width="110" height="135"><svg version="1.1" id="SvgjsSvg1001" xmlns="http://www.w3.org/2000/svg" xmlns:xlink="http://www.w3.org/1999/xlink" x="0px" y="0px" viewBox="0 0 110 135" style="enable-background:new 0 0 110 135;" xml:space="preserve">
<path d="M51.9,66.7c0-1.8-0.8-3.5-2.1-5c2.5-1.9,3.7-4.4,3.7-6.7c0-0.9-0.7-1.6-1.6-1.6s-1.6,0.7-1.6,1.6c0,1.9-1.4,3.8-4,5.3
	c0,0-0.1,0-0.1,0.1c-2.7,1.5-6.6,2.5-11.5,2.5c-7.8,0-10,1.5-10.5,2.1c-0.6,0.6-0.5,1.6,0.1,2.2c0.3,0.3,0.7,0.4,1,0.4
	c0.4,0,0.8-0.1,1.1-0.4c0.1-0.1,0.7-0.4,2.1-0.7c0,0.1,0,0.2,0,0.3c0,4.8,5.1,8.6,11.7,8.6S51.9,71.5,51.9,66.7L51.9,66.7z
	 M31.6,66.7c0-0.2,0-0.5,0.1-0.7c0.9-0.1,1.9-0.1,3-0.1c5.1,0,9.2-1,12.3-2.5c1.1,0.9,1.8,2.1,1.8,3.3c0,3-3.9,5.5-8.6,5.5
	S31.6,69.7,31.6,66.7L31.6,66.7z M98.6,52.1c-1.7-1.2-3.9-1.6-5.9-0.9l-0.2,0.1c-0.1-2.6-0.5-5.1-1.1-7.5c0.3-0.4,0.5-0.9,0.8-1.3
	c4.4-7.6,5.2-15.4,2.3-22.4c-0.3-0.6-0.9-1-1.6-1c-0.7,0.1-1.2,0.6-1.4,1.2c-0.1,0.3-1.3,5.9-7.2,9.7c-2.1-2.6-4.6-4.8-7.4-6.6
	c-2.9-1.9-6-3.4-9.3-4.4c-3.3-1-6.8-1.5-10.2-1.5h-4.7c-7,0-13.7,2-19.5,5.9c-2.8,1.8-5.2,4.1-7.4,6.6c-5.9-3.8-7.1-9.4-7.2-9.7
	c-0.1-0.7-0.7-1.2-1.4-1.3c-0.7-0.1-1.3,0.3-1.6,1c-2.9,7-2.1,14.8,2.3,22.4c0.3,0.4,0.5,0.9,0.8,1.3c-0.7,2.4-1,5-1.1,7.5l-0.2-0.1
	c-2-0.7-4.2-0.3-5.9,0.9c-1.7,1.2-2.8,3.2-2.8,5.4c0,1,0.2,1.9,0.6,2.8l3.5,7.5l-0.5,3.7c-0.7,5.3,2.1,10.4,6.9,12.8
	c0,0.2,0.1,0.4,0.1,0.7c-0.5,0-1.1-0.1-1.6-0.2c-0.7-0.1-1.3,0.2-1.6,0.8c-0.3,0.6-0.2,1.3,0.3,1.8c0.1,0.1,1.8,1.8,4.7,3.2
	c0.3,0.7,0.6,1.4,0.9,2.1c1.4,2.9,3.2,5.6,5.3,8.1l1.6,1.8c1.9,2.2,3.5,4.7,4.6,7.4c1,2.3,2.6,4.2,4.6,5.6c3.4,2.2,7.8,2.7,11.6,1.2
	l5.3-2.1l5.3,2.1c1.5,0.6,3.1,0.9,4.7,0.9c2.4,0,4.8-0.7,6.9-2.1c2.1-1.4,3.7-3.3,4.6-5.5c1.1-2.6,2.7-5.1,4.6-7.4l1.6-1.8
	c2.6-3,4.7-6.4,6.2-10.1c2.9-1.4,4.6-3.1,4.7-3.2c0.5-0.5,0.6-1.2,0.3-1.8s-1-0.9-1.6-0.8c-0.6,0.1-1.1,0.1-1.6,0.2
	c0-0.2,0.1-0.4,0.1-0.7c4.3-2.1,7-6.4,7-11.2c0-0.5,0-1.1-0.1-1.6l-0.5-3.7l3.5-7.5C102.1,57.4,101.2,53.9,98.6,52.1L98.6,52.1z
	 M75.1,26c2.4,1.6,4.5,3.4,6.3,5.6c-1.9,0.8-4.1,1.5-6.8,1.8c-0.9,0.1-1.5,0.9-1.4,1.7c0.1,0.9,0.9,1.5,1.7,1.4
	c10.4-1.3,15.4-7,17.7-11.1c2.3,13.1-10,24-10.2,24.1c-0.6,0.6-0.7,1.6-0.2,2.2c0.3,0.4,0.7,0.5,1.2,0.5c0.4,0,0.7-0.1,1-0.4
	c0.1-0.1,2-1.8,4.3-4.6c0.3,1.8,0.5,3.6,0.5,5.5v5.8c-2.5,0.4-9.7,0.3-19.2-9.2c-10.9-10.9-6.6-25.9-6-27.8c0.8,0.2,1.6,0.4,2.4,0.6
	C69.6,22.9,72.5,24.3,75.1,26L75.1,26z M25.4,51.8c0.3,0.3,0.7,0.4,1,0.4c0.4,0,0.9-0.2,1.2-0.5c0.6-0.7,0.5-1.6-0.2-2.2
	c-0.1-0.1-12.4-11-10.2-24.1c0.5,0.8,1,1.7,1.7,2.6c2.5,3.3,7.4,7.4,16,8.4c0.9,0.1,1.6-0.5,1.7-1.4c0.1-0.9-0.5-1.6-1.4-1.7
	c-2.7-0.3-4.9-1-6.8-1.8c1.8-2.1,4-4,6.3-5.6c3.3-2.2,7-3.8,10.9-4.6c0.6,2,4.9,16.9-6,27.8c-9.5,9.5-16.7,9.6-19.2,9.2v-5.8
	c0-1.9,0.2-3.7,0.5-5.5C23.4,50,25.3,51.7,25.4,51.8L25.4,51.8z M30,85.1c0.2-0.2,0.4-0.3,0.6-0.4c0.9,0.7,1.8,1.4,2.8,2.1l2,1.3
	c-1.2,0.5-2.3,0.8-3.5,1c-3.6,0.6-6.7-0.1-9-1.1c0,0-0.1,0-0.1-0.1c0,0-0.1,0-0.1,0C26,87.5,28.4,86.2,30,85.1L30,85.1z M79.4,84.6
	c0.2,0.1,0.4,0.3,0.6,0.4c1.7,1.2,4.1,2.4,7.2,2.8c0,0-0.1,0-0.1,0c0,0-0.1,0-0.1,0.1c-2.3,1-5.4,1.8-9,1.1c-1.1-0.2-2.3-0.6-3.5-1
	l2-1.4C77.6,86.1,78.6,85.4,79.4,84.6L79.4,84.6z M70.2,91l1.4-0.9c1.3,0.7,2.7,1.2,4,1.6l-4.2,9.3c-0.1,0.2-0.2,0.5-0.4,0.7
	L69,96.6c-0.2-0.6-0.8-1-1.4-1c-0.7-0.1-1.2,0.4-1.5,1l-3.3,7.9c-0.4-0.2-0.8-0.3-1.1-0.6l-0.6-0.4c-1.6-1.1-3.5-1.6-5.4-1.6h-1.3
	c-1.9,0-3.8,0.6-5.5,1.7l-0.5,0.3c-0.4,0.2-0.8,0.4-1.2,0.6L44,96.6c-0.2-0.6-0.8-1-1.4-1h0c-0.6,0-1.2,0.4-1.4,1l-2,5.2
	c-0.1-0.2-0.3-0.5-0.4-0.7l-4.2-9.3c1.3-0.4,2.7-0.9,4-1.6l1.4,0.9c2.2,1.5,4.7,2.6,7.2,3.4c2.6,0.8,5.2,1.2,7.9,1.2
	C60.4,95.6,65.7,94,70.2,91L70.2,91z M68.4,104.2c-0.3,0.1-0.6,0.3-0.8,0.4c-0.1,0-0.3,0.1-0.4,0.1c-0.3,0.1-0.6,0.2-1,0.2
	c-0.1,0-0.2,0-0.3,0l1.5-3.6l1.1,2.8C68.5,104.2,68.5,104.2,68.4,104.2L68.4,104.2z M43.9,104.9c-0.4,0-0.8-0.1-1.2-0.2
	c-0.1,0-0.1,0-0.2-0.1c-0.3-0.1-0.7-0.3-1-0.4c-0.1,0-0.1-0.1-0.1-0.1l1.1-2.8L44,105C44,105,44,105,43.9,104.9L43.9,104.9z
	 M80.4,98.6l-1.6,1.8c-2.2,2.5-3.9,5.2-5.2,8.2c-0.7,1.7-1.9,3.1-3.5,4.2c-2.6,1.7-5.9,2-8.7,0.9l-5.8-2.3c-0.4-0.1-0.8-0.1-1.2,0
	l-5.8,2.3c-2.8,1.1-6.1,0.8-8.7-0.9c-1.6-1-2.8-2.5-3.5-4.2c-1.3-2.9-3-5.7-5.2-8.2l-1.6-1.8c-1.8-2-3.2-4.3-4.4-6.6
	c1.3,0.3,2.6,0.5,4.1,0.5c0.6,0,1.3,0,2-0.1l4.5,10c0.6,1.4,1.6,2.6,2.7,3.5c0,0,0,0,0.1,0.1c0.1,0.1,0.2,0.1,0.3,0.2
	c0.3,0.2,0.6,0.4,0.9,0.6c0.2,0.1,0.3,0.2,0.5,0.3c0.3,0.2,0.6,0.3,0.9,0.4c0.2,0.1,0.3,0.1,0.5,0.2c0.3,0.1,0.7,0.2,1.1,0.3
	c0.2,0,0.3,0.1,0.5,0.1c0.5,0.1,1,0.1,1.6,0.1c0.4,0,0.8,0,1.2-0.1c0.2,0,0.3-0.1,0.5-0.1c0.1,0,0.2,0,0.2,0c0,0,0,0,0.1,0
	c1.2-0.3,2.4-0.7,3.4-1.4l0.5-0.3c1.1-0.7,2.4-1.1,3.7-1.1h1.3c1.3,0,2.6,0.4,3.7,1.1l0.6,0.4c1.1,0.7,2.2,1.1,3.4,1.4
	c0,0,0,0,0.1,0c0.1,0,0.2,0,0.2,0c0.2,0,0.3,0.1,0.5,0.1c0.4,0.1,0.8,0.1,1.2,0.1c0.5,0,1.1-0.1,1.6-0.1c0.1,0,0.3-0.1,0.4-0.1
	c0.4-0.1,0.8-0.2,1.2-0.3c0.1,0,0.3-0.1,0.4-0.2c0.3-0.1,0.7-0.3,1-0.5c0.2-0.1,0.3-0.2,0.4-0.2c0.1-0.1,0.2-0.1,0.3-0.2
	c0.2-0.1,0.4-0.3,0.6-0.4c0.1-0.1,0.2-0.1,0.3-0.2c0,0,0,0,0.1-0.1c1.2-1,2.1-2.2,2.7-3.5l4.5-10c0.7,0.1,1.3,0.1,2,0.1
	c1.5,0,2.8-0.2,4.1-0.5C83.6,94.4,82.2,96.6,80.4,98.6L80.4,98.6z M97.9,58.9l-3.7,7.9c-0.1,0.3-0.2,0.6-0.1,0.9l0.5,4.2
	c0.1,0.4,0.1,0.8,0.1,1.2c0,2.9-1.4,5.7-3.7,7.4v-8.2c0-0.9-0.7-1.6-1.6-1.6s-1.6,0.7-1.6,1.6V83c-0.1,0.6-0.2,1.2-0.4,1.8
	c-1.9-0.3-3.4-0.9-4.6-1.6l3.3-7.2c0.3-0.8,0-1.7-0.8-2.1c-0.8-0.4-1.7,0-2.1,0.7c-1.3,2.5-3,4.8-5,6.8c-1,1-2.1,1.9-3.4,2.7
	L70.6,87c0,0,0,0-0.1,0l-2,1.4c-4,2.7-8.7,4.1-13.4,4.1c-2.4,0-4.8-0.4-7-1c-2.3-0.7-4.4-1.7-6.4-3l-2.1-1.4c0,0,0,0,0,0l-4.3-2.9
	c-1.3-0.9-2.4-1.7-3.4-2.7c-2.1-2-3.8-4.3-5-6.8c-0.4-0.8-1.3-1.1-2.1-0.7c-0.8,0.4-1.1,1.3-0.8,2.1l3.3,7.2
	c-1.2,0.7-2.7,1.3-4.6,1.6c-0.1-0.6-0.2-1.2-0.4-1.8V72.2c0-0.9-0.7-1.6-1.6-1.6s-1.6,0.7-1.6,1.6v8.2c-2.6-2-4.1-5.2-3.7-8.6
	l0.5-4.2c0-0.3,0-0.6-0.1-0.9l-3.7-7.9c-0.2-0.5-0.3-0.9-0.3-1.5c0-1.1,0.5-2.2,1.5-2.8c0.9-0.6,2.1-0.8,3.1-0.5l1.2,0.4v5.1
	c0,0.6,0.4,1.2,1,1.5c0.1,0.1,1.5,0.6,3.7,0.6c4.1,0,11.1-1.6,19.8-10.3c11.7-11.7,8-26.9,6.9-30.6c1.2-0.1,2.5-0.2,3.8-0.2h4.7
	c1.3,0,2.5,0.1,3.8,0.2C60,24.5,56.3,39.7,68,51.4c8.7,8.7,15.8,10.3,19.8,10.3c2.3,0,3.6-0.5,3.7-0.6c0.6-0.2,1-0.8,1-1.5v-5.1
	l1.2-0.4c1.1-0.4,2.2-0.2,3.1,0.5C98.2,55.6,98.6,57.4,97.9,58.9L97.9,58.9z M75.3,62.8c-4.9,0-8.8-1-11.5-2.5c0,0-0.1-0.1-0.1-0.1
	c-2.6-1.5-4-3.4-4-5.3c0-0.9-0.7-1.6-1.6-1.6s-1.6,0.7-1.6,1.6c0,2.4,1.3,4.8,3.7,6.7c-1.4,1.4-2.1,3.2-2.1,5
	c0,4.8,5.1,8.6,11.7,8.6s11.7-3.8,11.7-8.6c0-0.1,0-0.2,0-0.3c1.4,0.3,2,0.6,2.1,0.7c0.3,0.3,0.7,0.4,1.1,0.4c0.4,0,0.7-0.1,1-0.4
	c0.6-0.6,0.7-1.6,0.1-2.2C85.3,64.3,83.1,62.8,75.3,62.8L75.3,62.8z M78.5,66.7c0,3-3.9,5.5-8.6,5.5s-8.6-2.5-8.6-5.5
	c0-1.2,0.6-2.3,1.8-3.3c3.1,1.5,7.1,2.5,12.3,2.5c1.2,0,2.2,0,3,0.1C78.4,66.3,78.5,66.5,78.5,66.7L78.5,66.7z M70.6,80
	c0,2.8-1.3,4.2-2.4,4.9c-1.9,1.2-4.4,0.9-6.5,0.2c-1.1,1.2-3.2,2.8-6.8,2.8s-5.7-1.6-6.8-2.8c-2.1,0.8-4.6,1-6.5-0.2
	c-1.1-0.7-2.4-2.1-2.4-4.9c0-0.9,0.7-1.6,1.6-1.6s1.6,0.7,1.6,1.6c0,1.7,0.7,2.1,0.9,2.2c1,0.6,2.9,0.4,4.7-0.5
	c0.8-0.4,1.7-0.1,2.1,0.7c0,0.1,1.3,2.3,4.9,2.3s4.8-2.2,4.9-2.3c0.4-0.7,1.3-1.1,2.1-0.7c1.8,0.9,3.7,1.1,4.7,0.5
	c0.2-0.1,0.9-0.5,0.9-2.2c0-0.9,0.7-1.6,1.6-1.6S70.6,79.1,70.6,80L70.6,80z"></path>
</svg><style>@media (prefers-color-scheme: light) { :root { filter: none; } }
@media (prefers-color-scheme: dark) { :root { filter: invert(100%); } }
</style></svg>