<?xml version="1.0" encoding="UTF-8"?>
<svg xmlns="http://www.w3.org/2000/svg" xmlns:xlink="http://www.w3.org/1999/xlink" viewBox="0 0 888.89 400">
  <defs>
    <style>
      .cls-1, .cls-2, .cls-3, .cls-4, .cls-5, .cls-6, .cls-7, .cls-8, .cls-9, .cls-10, .cls-11, .cls-12, .cls-13, .cls-14, .cls-15, .cls-16, .cls-17, .cls-18, .cls-19, .cls-20, .cls-21, .cls-22, .cls-23, .cls-24, .cls-25, .cls-26, .cls-27, .cls-28, .cls-29, .cls-30, .cls-31, .cls-32, .cls-33, .cls-34, .cls-35, .cls-36, .cls-37, .cls-38, .cls-39, .cls-40, .cls-41, .cls-42, .cls-43, .cls-44, .cls-45, .cls-46, .cls-47, .cls-48, .cls-49, .cls-50, .cls-51, .cls-52, .cls-53, .cls-54, .cls-55, .cls-56, .cls-57, .cls-58 {
        stroke-width: 0px;
      }

      .cls-1, .cls-2, .cls-3, .cls-4, .cls-5, .cls-6, .cls-7, .cls-8, .cls-9, .cls-10, .cls-11, .cls-12, .cls-13, .cls-14, .cls-16, .cls-17, .cls-18, .cls-19, .cls-20, .cls-21, .cls-22, .cls-23, .cls-24, .cls-25, .cls-26, .cls-27, .cls-28, .cls-29, .cls-30, .cls-31, .cls-32, .cls-33, .cls-34, .cls-35, .cls-36, .cls-37, .cls-38, .cls-39, .cls-40, .cls-41, .cls-42, .cls-43, .cls-44, .cls-45, .cls-46, .cls-47, .cls-48, .cls-49, .cls-50, .cls-51, .cls-52, .cls-53, .cls-54, .cls-55, .cls-56, .cls-57, .cls-58 {
        fill-rule: evenodd;
      }

      .cls-1, .cls-54 {
        fill: #fff;
      }

      .cls-2 {
        fill: url(#_Áåçûìÿííûé_ãðàäèåíò_361-27);
      }

      .cls-3 {
        fill: url(#_Áåçûìÿííûé_ãðàäèåíò_361-15);
      }

      .cls-59 {
        opacity: .5;
      }

      .cls-4 {
        fill: url(#_Áåçûìÿííûé_ãðàäèåíò_361-18);
      }

      .cls-5 {
        fill: #ccb689;
      }

      .cls-5, .cls-60, .cls-31, .cls-50, .cls-54 {
        mix-blend-mode: soft-light;
      }

      .cls-5, .cls-31, .cls-50 {
        opacity: .69;
      }

      .cls-6 {
        fill: #91001d;
      }

      .cls-7 {
        fill: url(#_Áåçûìÿííûé_ãðàäèåíò_361-4);
      }

      .cls-61 {
        isolation: isolate;
      }

      .cls-8 {
        fill: #63003b;
        opacity: .6;
      }

      .cls-9 {
        fill: #fc723b;
      }

      .cls-10 {
        fill: url(#_Áåçûìÿííûé_ãðàäèåíò_361-14);
      }

      .cls-11 {
        fill: url(#_Áåçûìÿííûé_ãðàäèåíò_361-10);
      }

      .cls-12 {
        fill: url(#_Áåçûìÿííûé_ãðàäèåíò_361-13);
      }

      .cls-13 {
        fill: url(#_Áåçûìÿííûé_ãðàäèåíò_361-17);
      }

      .cls-14 {
        fill: url(#_Áåçûìÿííûé_ãðàäèåíò_78-2);
      }

      .cls-15 {
        fill: none;
      }

      .cls-16 {
        fill: #fd905e;
      }

      .cls-17 {
        fill: #bdaa11;
      }

      .cls-18 {
        fill: #c5a0b1;
      }

      .cls-18, .cls-35, .cls-49 {
        opacity: .46;
      }

      .cls-18, .cls-35, .cls-49, .cls-55 {
        mix-blend-mode: multiply;
      }

      .cls-19 {
        fill: url(#_Áåçûìÿííûé_ãðàäèåíò_361-24);
      }

      .cls-20 {
        fill: url(#_Áåçûìÿííûé_ãðàäèåíò_361-12);
      }

      .cls-21 {
        fill: #fc9348;
      }

      .cls-22 {
        fill: url(#_Áåçûìÿííûé_ãðàäèåíò_361-28);
      }

      .cls-23 {
        fill: url(#_Áåçûìÿííûé_ãðàäèåíò_78-3);
      }

      .cls-24 {
        fill: url(#_Áåçûìÿííûé_ãðàäèåíò_361-3);
      }

      .cls-25 {
        fill: url(#linear-gradient);
      }

      .cls-26 {
        fill: url(#_Áåçûìÿííûé_ãðàäèåíò_361-26);
      }

      .cls-27 {
        fill: url(#_Áåçûìÿííûé_ãðàäèåíò_361-25);
      }

      .cls-28 {
        fill: #f06b60;
      }

      .cls-29 {
        fill: url(#_Áåçûìÿííûé_ãðàäèåíò_361-5);
      }

      .cls-30 {
        fill: url(#linear-gradient-2);
      }

      .cls-31 {
        fill: #c17a5f;
      }

      .cls-32 {
        fill: url(#_Áåçûìÿííûé_ãðàäèåíò_78);
      }

      .cls-33 {
        fill: url(#_Áåçûìÿííûé_ãðàäèåíò_361-22);
      }

      .cls-62 {
        clip-path: url(#clippath);
      }

      .cls-34 {
        fill: url(#_Áåçûìÿííûé_ãðàäèåíò_361-7);
      }

      .cls-35 {
        fill: #b88776;
      }

      .cls-36 {
        fill: url(#_Áåçûìÿííûé_ãðàäèåíò_361-23);
      }

      .cls-37 {
        fill: url(#_Áåçûìÿííûé_ãðàäèåíò_361-29);
      }

      .cls-38 {
        fill: url(#_Áåçûìÿííûé_ãðàäèåíò_361-6);
      }

      .cls-39 {
        fill: #8f3456;
      }

      .cls-40 {
        fill: url(#_Áåçûìÿííûé_ãðàäèåíò_361-9);
      }

      .cls-41 {
        fill: #cc4946;
      }

      .cls-42 {
        fill: url(#_Áåçûìÿííûé_ãðàäèåíò_6);
      }

      .cls-43 {
        fill: url(#_Áåçûìÿííûé_ãðàäèåíò_78-4);
      }

      .cls-44 {
        fill: url(#_Áåçûìÿííûé_ãðàäèåíò_361-11);
      }

      .cls-45 {
        fill: url(#_Áåçûìÿííûé_ãðàäèåíò_361-8);
      }

      .cls-46 {
        fill: url(#_Áåçûìÿííûé_ãðàäèåíò_361-20);
      }

      .cls-47 {
        fill: url(#_Áåçûìÿííûé_ãðàäèåíò_361-21);
      }

      .cls-48 {
        fill: url(#_Áåçûìÿííûé_ãðàäèåíò_361);
      }

      .cls-49, .cls-55 {
        fill: #fda098;
      }

      .cls-50 {
        fill: #fdac5f;
      }

      .cls-51 {
        fill: #867a0f;
      }

      .cls-52 {
        fill: url(#_Áåçûìÿííûé_ãðàäèåíò_361-19);
      }

      .cls-53 {
        fill: url(#_Áåçûìÿííûé_ãðàäèåíò_361-16);
      }

      .cls-56 {
        fill: #da6060;
      }

      .cls-57 {
        fill: url(#_Áåçûìÿííûé_ãðàäèåíò_361-2);
      }

      .cls-58 {
        fill: #862b3b;
      }
    </style>
    <clipPath id="clippath">
      <rect class="cls-15" width="888.89" height="400" transform="translate(888.89 400) rotate(180)"/>
    </clipPath>
    <linearGradient id="linear-gradient" x1="445.69" y1="382.33" x2="445.69" y2="345.18" gradientUnits="userSpaceOnUse">
      <stop offset="0" stop-color="#fff8da"/>
      <stop offset="1" stop-color="#f1c422"/>
    </linearGradient>
    <linearGradient id="linear-gradient-2" x1="496.1" y1="382.03" x2="496.1" y2="348.06" gradientUnits="userSpaceOnUse">
      <stop offset="0" stop-color="#fff"/>
      <stop offset=".97" stop-color="#fdf6d9"/>
    </linearGradient>
    <linearGradient id="_Áåçûìÿííûé_ãðàäèåíò_6" data-name="Áåçûìÿííûé ãðàäèåíò 6" x1="141.38" y1="374.44" x2="141.38" y2="355.18" gradientUnits="userSpaceOnUse">
      <stop offset="0" stop-color="#fff"/>
      <stop offset=".96" stop-color="#c1f0fd"/>
    </linearGradient>
    <linearGradient id="_Áåçûìÿííûé_ãðàäèåíò_78" data-name="Áåçûìÿííûé ãðàäèåíò 78" x1="151.89" y1="396.36" x2="151.89" y2="275.23" gradientUnits="userSpaceOnUse">
      <stop offset=".05" stop-color="#e45255"/>
      <stop offset=".53" stop-color="#a53046"/>
      <stop offset="1" stop-color="#7f2947"/>
    </linearGradient>
    <linearGradient id="_Áåçûìÿííûé_ãðàäèåíò_361" data-name="Áåçûìÿííûé ãðàäèåíò 361" x1="96.08" y1="332.39" x2="194.11" y2="332.39" gradientUnits="userSpaceOnUse">
      <stop offset=".05" stop-color="#8a1b2f"/>
      <stop offset="1" stop-color="#610034"/>
    </linearGradient>
    <linearGradient id="_Áåçûìÿííûé_ãðàäèåíò_78-2" data-name="Áåçûìÿííûé ãðàäèåíò 78" x1="177.85" y1="396.36" x2="177.85" y2="366.4" xlink:href="#_Áåçûìÿííûé_ãðàäèåíò_78"/>
    <linearGradient id="_Áåçûìÿííûé_ãðàäèåíò_361-2" data-name="Áåçûìÿííûé ãðàäèåíò 361" x1="150.1" y1="379.43" x2="180.39" y2="379.43" xlink:href="#_Áåçûìÿííûé_ãðàäèåíò_361"/>
    <linearGradient id="_Áåçûìÿííûé_ãðàäèåíò_361-3" data-name="Áåçûìÿííûé ãðàäèåíò 361" x1="116.38" y1="329.59" x2="207.23" y2="329.59" xlink:href="#_Áåçûìÿííûé_ãðàäèåíò_361"/>
    <linearGradient id="_Áåçûìÿííûé_ãðàäèåíò_361-4" data-name="Áåçûìÿííûé ãðàäèåíò 361" x1="111.38" y1="337.74" x2="207.69" y2="337.74" xlink:href="#_Áåçûìÿííûé_ãðàäèåíò_361"/>
    <linearGradient id="_Áåçûìÿííûé_ãðàäèåíò_361-5" data-name="Áåçûìÿííûé ãðàäèåíò 361" x1="104.31" y1="359.95" x2="207.27" y2="359.95" xlink:href="#_Áåçûìÿííûé_ãðàäèåíò_361"/>
    <linearGradient id="_Áåçûìÿííûé_ãðàäèåíò_361-6" data-name="Áåçûìÿííûé ãðàäèåíò 361" x1="156.93" y1="375.28" x2="187.29" y2="375.28" xlink:href="#_Áåçûìÿííûé_ãðàäèåíò_361"/>
    <linearGradient id="_Áåçûìÿííûé_ãðàäèåíò_361-7" data-name="Áåçûìÿííûé ãðàäèåíò 361" x1="110.32" y1="320.01" x2="147.8" y2="320.01" xlink:href="#_Áåçûìÿííûé_ãðàäèåíò_361"/>
    <linearGradient id="_Áåçûìÿííûé_ãðàäèåíò_361-8" data-name="Áåçûìÿííûé ãðàäèåíò 361" x1="151.63" y1="278.9" x2="183.01" y2="278.9" xlink:href="#_Áåçûìÿííûé_ãðàäèåíò_361"/>
    <linearGradient id="_Áåçûìÿííûé_ãðàäèåíò_78-3" data-name="Áåçûìÿííûé ãðàäèåíò 78" x1="753.95" y1="378.42" x2="753.95" y2="231.19" xlink:href="#_Áåçûìÿííûé_ãðàäèåíò_78"/>
    <linearGradient id="_Áåçûìÿííûé_ãðàäèåíò_361-9" data-name="Áåçûìÿííûé ãðàäèåíò 361" x1="730.2" y1="306.11" x2="782.77" y2="306.11" xlink:href="#_Áåçûìÿííûé_ãðàäèåíò_361"/>
    <linearGradient id="_Áåçûìÿííûé_ãðàäèåíò_361-10" data-name="Áåçûìÿííûé ãðàäèåíò 361" x1="731.96" y1="253.42" x2="758.6" y2="253.42" xlink:href="#_Áåçûìÿííûé_ãðàäèåíò_361"/>
    <linearGradient id="_Áåçûìÿííûé_ãðàäèåíò_78-4" data-name="Áåçûìÿííûé ãðàäèåíò 78" x1="728.8" y1="379.87" x2="728.8" y2="331.05" xlink:href="#_Áåçûìÿííûé_ãðàäèåíò_78"/>
    <linearGradient id="_Áåçûìÿííûé_ãðàäèåíò_361-11" data-name="Áåçûìÿííûé ãðàäèåíò 361" x1="702.31" y1="360.51" x2="758.86" y2="360.51" xlink:href="#_Áåçûìÿííûé_ãðàäèåíò_361"/>
    <linearGradient id="_Áåçûìÿííûé_ãðàäèåíò_361-12" data-name="Áåçûìÿííûé ãðàäèåíò 361" x1="727.7" y1="273.28" x2="765.11" y2="273.28" xlink:href="#_Áåçûìÿííûé_ãðàäèåíò_361"/>
    <linearGradient id="_Áåçûìÿííûé_ãðàäèåíò_361-13" data-name="Áåçûìÿííûé ãðàäèåíò 361" x1="698.74" y1="356.48" x2="757.88" y2="356.48" xlink:href="#_Áåçûìÿííûé_ãðàäèåíò_361"/>
    <linearGradient id="_Áåçûìÿííûé_ãðàäèåíò_361-14" data-name="Áåçûìÿííûé ãðàäèåíò 361" x1="699.2" y1="363.1" x2="758.27" y2="363.1" xlink:href="#_Áåçûìÿííûé_ãðàäèåíò_361"/>
    <linearGradient id="_Áåçûìÿííûé_ãðàäèåíò_361-15" data-name="Áåçûìÿííûé ãðàäèåíò 361" x1="748.28" y1="292.65" x2="779.03" y2="292.65" xlink:href="#_Áåçûìÿííûé_ãðàäèåíò_361"/>
    <linearGradient id="_Áåçûìÿííûé_ãðàäèåíò_361-16" data-name="Áåçûìÿííûé ãðàäèåíò 361" x1="852.2" y1="374.81" x2="883.3" y2="374.81" xlink:href="#_Áåçûìÿííûé_ãðàäèåíò_361"/>
    <linearGradient id="_Áåçûìÿííûé_ãðàäèåíò_361-17" data-name="Áåçûìÿííûé ãðàäèåíò 361" x1="832.6" y1="382.42" x2="839.68" y2="382.42" xlink:href="#_Áåçûìÿííûé_ãðàäèåíò_361"/>
    <linearGradient id="_Áåçûìÿííûé_ãðàäèåíò_361-18" data-name="Áåçûìÿííûé ãðàäèåíò 361" x1="672.52" y1="375.27" x2="692.02" y2="375.27" xlink:href="#_Áåçûìÿííûé_ãðàäèåíò_361"/>
    <linearGradient id="_Áåçûìÿííûé_ãðàäèåíò_361-19" data-name="Áåçûìÿííûé ãðàäèåíò 361" x1="498.62" y1="390.33" x2="524.37" y2="390.33" xlink:href="#_Áåçûìÿííûé_ãðàäèåíò_361"/>
    <linearGradient id="_Áåçûìÿííûé_ãðàäèåíò_361-20" data-name="Áåçûìÿííûé ãðàäèåíò 361" x1="471.53" y1="391.47" x2="490.05" y2="391.47" xlink:href="#_Áåçûìÿííûé_ãðàäèåíò_361"/>
    <linearGradient id="_Áåçûìÿííûé_ãðàäèåíò_361-21" data-name="Áåçûìÿííûé ãðàäèåíò 361" x1="22.19" y1="346.18" x2="43.28" y2="346.18" xlink:href="#_Áåçûìÿííûé_ãðàäèåíò_361"/>
    <linearGradient id="_Áåçûìÿííûé_ãðàäèåíò_361-22" data-name="Áåçûìÿííûé ãðàäèåíò 361" x1="10.17" y1="345.02" x2="18.05" y2="345.02" xlink:href="#_Áåçûìÿííûé_ãðàäèåíò_361"/>
    <linearGradient id="_Áåçûìÿííûé_ãðàäèåíò_361-23" data-name="Áåçûìÿííûé ãðàäèåíò 361" x1="866.65" y1="379.7" x2="872.49" y2="379.7" xlink:href="#_Áåçûìÿííûé_ãðàäèåíò_361"/>
    <linearGradient id="_Áåçûìÿííûé_ãðàäèåíò_361-24" data-name="Áåçûìÿííûé ãðàäèåíò 361" x1="835.41" y1="383.51" x2="837.94" y2="383.51" xlink:href="#_Áåçûìÿííûé_ãðàäèåíò_361"/>
    <linearGradient id="_Áåçûìÿííûé_ãðàäèåíò_361-25" data-name="Áåçûìÿííûé ãðàäèåíò 361" x1="688.44" y1="377.37" x2="690.78" y2="377.37" xlink:href="#_Áåçûìÿííûé_ãðàäèåíò_361"/>
    <linearGradient id="_Áåçûìÿííûé_ãðàäèåíò_361-26" data-name="Áåçûìÿííûé ãðàäèåíò 361" x1="23.4" y1="348.94" x2="30.12" y2="348.94" xlink:href="#_Áåçûìÿííûé_ãðàäèåíò_361"/>
    <linearGradient id="_Áåçûìÿííûé_ãðàäèåíò_361-27" data-name="Áåçûìÿííûé ãðàäèåíò 361" x1="15.54" y1="346.13" x2="17.5" y2="346.13" xlink:href="#_Áåçûìÿííûé_ãðàäèåíò_361"/>
    <linearGradient id="_Áåçûìÿííûé_ãðàäèåíò_361-28" data-name="Áåçûìÿííûé ãðàäèåíò 361" x1="512.83" y1="393.58" x2="520.6" y2="393.58" xlink:href="#_Áåçûìÿííûé_ãðàäèåíò_361"/>
    <linearGradient id="_Áåçûìÿííûé_ãðàäèåíò_361-29" data-name="Áåçûìÿííûé ãðàäèåíò 361" x1="484.21" y1="393.25" x2="486.76" y2="393.25" xlink:href="#_Áåçûìÿííûé_ãðàäèåíò_361"/>
  </defs>
  <g class="cls-61">
    <g id="Layer_2" data-name="Layer 2">
      <g id="_1" data-name="1">
        <g class="cls-62">
          <g>
            <g>
              <path class="cls-9" d="M-5.35,345.16s120.29,7.57,152.73,13.8c32.44,6.24-47.77,19.13-49.41,21.56-1.64,2.43,139.15,5.61,344.76-7.14,232.48-14.42,451.41-16.04,451.41-16.04v45.53H-5.35v-57.71Z"/>
              <path class="cls-49" d="M109.16,353.07s22.16,2.63,23.92,8c1.76,5.37-54.49,19.52-56.76,23.09-2.27,3.56,174.81,15.13,279.15,12.45,126.04-3.24,233.81-28.68,305.17-32.86,81.6-4.78,233.5,2.1,233.5,2.1v-8.49s-138.3-7.04-301.12,5.57c-162.82,12.61-257.89,17.98-360.95,16.33-103.06-1.65-121.6,1.19-121.6-.67s50.66-11.57,52.21-13.14c1.55-1.57-23.2-11.06-53.51-12.36Z"/>
              <path class="cls-18" d="M103.8,381.4s104.27,4.48,228.22-.81c123.95-5.28,288.65-16.85,344.42-18.18,38.63-.92,217.69-2.27,217.69-2.27v-2.79s-218.63-4.48-368.74,5.57c-150.12,10.05-196.22,16.12-277.82,17.77-81.6,1.65-143.78.7-143.78.7Z"/>
              <path class="cls-25" d="M894.14,345.18v12.18s-184.64,0-409.51,13.56c-224.87,13.57-386.72,12.47-386.67,9.62.02-.74,4.06-1.91,9.99-3.35,16.87-4.09,48.99-10.3,47.02-14.66-3.52-7.78-139.18-16.13-157.73-17.23,21.08,1.22,194.32,11.5,183.55,18.73-10.36,6.97-39.81,4.91-62.33,12.34,26.37,1.2,52.38,1.75,78.01,1.77,38.56.02,76.25-1.15,112.97-3.12,52.46-2.81,106.89-11.19,155.12-16.03,91.9-9.23,283.47-1.61,339.42-7.88,55.96-6.27,90.15-5.9,90.15-5.9Z"/>
              <path class="cls-30" d="M894.14,348.06l.1,8.3s-184.16-.15-409.02,13.41c-224.87,13.57-387.31,13.62-387.26,10.77.02-.74,4.06-1.91,9.99-3.35-1.41,1.38,4.51.94,87,.94h1.52c.95,0,1.88,0,2.83,0,27.82-.12,67.22.2,110.25-1.54,88.22-3.59,192-14.4,244.78-17.14,79.88-4.15,192.51-1.21,258.03-5.27,59.41-3.69,79.07-5.91,81.77-6.09Z"/>
              <path class="cls-54" d="M229.65,369.65c-10.96-2.41-60.72-1.64-60.72-1.64l-.75.14s64.22.05,59.42,2.43c-4.79,2.38-25.41,3.7-33.55,3.44-7.83-.25-39.43-4.06-39.43-4.06l-1.95.22s31.96,2.9,27.51,4.37c-4.44,1.46-38.87,2.68-38.87,2.68l2.2.11c7.13-.31,30.04.66,30.04.66l1.13-.03c16.98-2.38,69.18-4.82,68.94-3.95-.23.87-4.96,3.98-4.96,3.98h1.01s5.97-5.08,12.63-5.23c6.66-.16,69.65,1.53,69.65,1.53l4.55-.28s-85.89-1.95-96.85-4.37ZM235.15,373.5c-6.62.07-16.54.52-16.54.52,1.16-1.01,11.12-3.96,18.49-3.21,7.99.81,10.99,1.42,11.14,1.44,0,.04-6.55,1.18-13.09,1.26Z"/>
              <path class="cls-54" d="M652.73,359.42s63.75-3.13,70.87-4.32c7.12-1.19-82.64-4.94-82.64-4.94l16.52.07s76.36,3.7,77.21,4.17c.85.47-15.56,2.31-15.34,2.99.23.68,68.25-1.73,71.62-1.99,3.37-.27-44.82-4.23-44.35-5.24.46-1.02,147.51-4.98,147.51-4.98l-.29.91s-135.53,4.08-134.98,4.99c.55.91,58.26,4.2,58.98,4.57.72.36-165.12,3.77-165.12,3.77Z"/>
              <path class="cls-42" d="M121.67,355.18s30.72,3.51,33.31,7.33-35.21,11.93-35.21,11.93c0,0,39.58-4.68,43.1-10.19,2.68-4.19-41.2-9.07-41.2-9.07Z"/>
            </g>
            <g>
              <polygon class="cls-41" points="15.48 357.65 17.17 357.93 17.98 357.65 16.13 357.27 15.48 357.65"/>
              <polygon class="cls-41" points="19.16 357.27 21.15 357.45 21.62 356.97 19.81 356.91 19.16 357.27"/>
              <polygon class="cls-41" points="75.73 357.47 85.55 358.13 82.44 359.59 75.73 358.53 75.73 357.47"/>
              <polygon class="cls-41" points="328.85 382.85 334.19 381.98 336.81 383.91 328.85 383.91 328.85 382.85"/>
              <polygon class="cls-41" points="4.64 366.82 14.45 367.48 11.34 368.94 4.64 367.88 4.64 366.82"/>
              <polygon class="cls-41" points="10.57 395.95 20.39 396.6 17.28 398.06 10.57 397 10.57 395.95"/>
              <polygon class="cls-41" points="86.35 359.46 87.04 358.94 89.12 358.53 90.15 358.99 86.35 359.46"/>
              <polygon class="cls-41" points="102.64 361.15 104.28 361.57 104.95 360.88 102.64 361.15"/>
              <polygon class="cls-41" points="354.32 382.25 355.96 382.68 356.63 381.98 354.32 382.25"/>
              <polygon class="cls-41" points="210.71 388.88 212.35 389.3 213.01 388.6 210.71 388.88"/>
              <polygon class="cls-41" points="160.06 389.51 161.7 389.93 162.36 389.23 160.06 389.51"/>
              <polygon class="cls-41" points="61.12 353.91 62.67 353.91 63.16 354.49 60.33 354.2 61.12 353.91"/>
              <polygon class="cls-41" points="63.53 353.12 63.82 352.97 65.37 352.87 65.99 353.12 63.53 353.12"/>
              <polygon class="cls-41" points="66.94 353.12 67.29 352.97 67.77 353.05 66.94 353.12"/>
              <polygon class="cls-41" points="53.34 372.23 51.38 371.93 49.51 372.87 50.59 372.87 54.24 372.6 53.34 372.23"/>
              <polygon class="cls-41" points="53.34 373.02 54.84 372.87 56.18 373.02 55.44 373.37 52.78 373.37 53.34 373.02"/>
              <polygon class="cls-41" points="322.98 383.07 324.48 382.92 325.82 383.07 325.08 383.42 322.42 383.42 322.98 383.07"/>
              <polygon class="cls-41" points="338.01 387.66 339.51 387.51 340.85 387.66 340.1 388.01 337.45 388.01 338.01 387.66"/>
              <polygon class="cls-41" points="459.48 373.93 460.98 373.77 462.32 373.93 461.58 374.27 458.93 374.27 459.48 373.93"/>
              <polygon class="cls-41" points="448.99 385.4 450.49 385.24 451.83 385.4 451.09 385.74 448.43 385.74 448.99 385.4"/>
              <polygon class="cls-41" points="530.82 376.26 532.32 376.1 533.66 376.26 532.92 376.6 530.26 376.6 530.82 376.26"/>
              <polygon class="cls-41" points="527.06 389.26 536.87 389.92 533.76 391.37 527.06 390.32 527.06 389.26"/>
              <polygon class="cls-41" points="552.52 388.66 554.17 389.08 554.83 388.39 552.52 388.66"/>
              <polygon class="cls-41" points="521.18 389.48 522.68 389.33 524.02 389.48 523.28 389.83 520.63 389.83 521.18 389.48"/>
              <polygon class="cls-41" points="536.21 394.07 537.71 393.92 539.05 394.07 538.31 394.42 535.65 394.42 536.21 394.07"/>
              <polygon class="cls-41" points="396.71 396.91 398.22 396.75 399.56 396.91 398.81 397.25 396.16 397.25 396.71 396.91"/>
              <polygon class="cls-41" points="512.74 394.18 514.24 394.02 515.59 394.18 514.84 394.52 512.19 394.52 512.74 394.18"/>
              <polygon class="cls-41" points="291.88 385.56 301.69 386.22 298.59 387.68 291.88 386.62 291.88 385.56"/>
              <polygon class="cls-41" points="181.52 386.95 191.33 387.61 188.22 389.07 181.52 388.01 181.52 386.95"/>
              <polygon class="cls-41" points="609.48 382.36 619.3 383.02 616.19 384.48 609.48 383.42 609.48 382.36"/>
              <polygon class="cls-41" points="317.35 384.96 318.99 385.39 319.66 384.69 317.35 384.96"/>
              <polygon class="cls-41" points="433.24 383.35 434.88 383.77 435.55 383.07 433.24 383.35"/>
              <polygon class="cls-41" points="580.7 385.49 582.34 385.91 583 385.21 580.7 385.49"/>
              <polygon class="cls-41" points="286.01 385.78 287.51 385.63 288.85 385.78 288.11 386.13 285.45 386.13 286.01 385.78"/>
              <polygon class="cls-41" points="301.04 390.37 302.54 390.22 303.88 390.37 303.13 390.72 300.48 390.72 301.04 390.37"/>
              <polygon class="cls-41" points="277.57 390.48 279.07 390.32 280.41 390.48 279.67 390.83 277.01 390.83 277.57 390.48"/>
              <polygon class="cls-41" points="38.54 360.58 42.41 360.58 43.39 359.35 38.75 359.67 38.54 360.58"/>
              <polygon class="cls-41" points="73.28 360.2 70.02 361.23 70.47 360.53 72.02 359.94 73.28 360.2"/>
              <polygon class="cls-41" points="88.11 391.12 105.22 391.96 99.8 393.83 88.11 392.47 88.11 391.12"/>
              <polygon class="cls-41" points="106.63 393.67 107.82 392.99 111.45 392.47 113.25 393.07 106.63 393.67"/>
              <polygon class="cls-41" points="135.02 395.83 137.88 396.37 139.04 395.48 135.02 395.83"/>
              <polygon class="cls-41" points="62.65 386.58 65.34 386.58 66.19 387.31 61.26 386.94 62.65 386.58"/>
              <polygon class="cls-41" points="8.47 395.11 11.15 395.11 12.01 395.84 7.08 395.48 8.47 395.11"/>
              <polygon class="cls-41" points="66.85 385.56 67.35 385.37 70.05 385.24 71.14 385.56 66.85 385.56"/>
              <polygon class="cls-41" points="72.78 385.56 73.39 385.37 74.23 385.47 72.78 385.56"/>
              <polygon class="cls-41" points="83.83 394.62 78.16 395.92 78.94 395.04 81.64 394.27 83.83 394.62"/>
              <polygon class="cls-41" points="645.58 371.76 647.27 372.04 648.08 371.76 646.23 371.38 645.58 371.76"/>
              <polygon class="cls-41" points="649.27 371.38 651.25 371.56 651.72 371.08 649.92 371.03 649.27 371.38"/>
              <polygon class="cls-41" points="476.96 381.02 478.95 381.2 479.42 380.72 477.61 380.67 476.96 381.02"/>
              <polygon class="cls-41" points="705.84 371.58 715.65 372.24 712.54 373.7 705.84 372.64 705.84 371.58"/>
              <polygon class="cls-41" points="634.74 380.93 644.55 381.59 641.44 383.05 634.74 381.99 634.74 380.93"/>
              <polygon class="cls-41" points="737.34 397.48 747.15 398.14 744.04 399.6 737.34 398.54 737.34 397.48"/>
              <polygon class="cls-41" points="716.46 373.57 717.14 373.05 719.22 372.64 720.25 373.11 716.46 373.57"/>
              <polygon class="cls-41" points="850.31 369.43 850.99 368.91 853.07 368.5 854.1 368.96 850.31 369.43"/>
              <polygon class="cls-41" points="732.75 375.27 734.39 375.69 735.05 374.99 732.75 375.27"/>
              <polygon class="cls-41" points="691.23 368.03 692.77 368.03 693.26 368.6 690.43 368.31 691.23 368.03"/>
              <polygon class="cls-41" points="693.64 367.23 693.92 367.09 695.47 366.98 696.1 367.23 693.64 367.23"/>
              <polygon class="cls-41" points="697.04 367.23 697.39 367.09 697.87 367.16 697.04 367.23"/>
              <polygon class="cls-41" points="683.44 386.35 681.48 386.04 679.61 386.98 680.69 386.98 684.35 386.71 683.44 386.35"/>
              <polygon class="cls-41" points="683.44 387.14 684.94 386.98 686.28 387.14 685.54 387.48 682.88 387.48 683.44 387.14"/>
              <polygon class="cls-41" points="668.64 374.69 672.51 374.69 673.49 373.46 668.85 373.79 668.64 374.69"/>
              <polygon class="cls-41" points="703.38 374.32 700.12 375.34 700.57 374.65 702.12 374.05 703.38 374.32"/>
              <polygon class="cls-41" points="809.97 388.55 827.08 389.39 821.66 391.26 809.97 389.91 809.97 388.55"/>
              <polygon class="cls-41" points="828.49 391.1 829.68 390.43 833.31 389.91 835.11 390.5 828.49 391.1"/>
              <polygon class="cls-41" points="856.88 393.26 859.74 393.8 860.9 392.91 856.88 393.26"/>
              <polygon class="cls-41" points="784.51 384.01 787.2 384.01 788.05 384.74 783.12 384.37 784.51 384.01"/>
              <polygon class="cls-41" points="838.27 368.23 840.95 368.23 841.81 368.96 836.88 368.6 838.27 368.23"/>
              <polygon class="cls-41" points="730.33 392.55 733.01 392.55 733.87 393.28 728.94 392.91 730.33 392.55"/>
              <polygon class="cls-41" points="788.71 382.99 789.21 382.8 791.91 382.67 793 382.99 788.71 382.99"/>
              <polygon class="cls-41" points="794.64 382.99 795.25 382.8 796.09 382.9 794.64 382.99"/>
              <polygon class="cls-41" points="805.69 392.05 800.02 393.36 800.8 392.47 803.5 391.71 805.69 392.05"/>
            </g>
            <polygon class="cls-8" points="669.37 379.08 699.54 388.13 705.62 386.81 776.08 406.26 878.26 406.26 868.74 388.42 782.77 376.03 733.43 365.84 669.37 379.08"/>
            <polygon class="cls-8" points="74.4 380.1 18.8 394.66 46.6 461.48 161.4 412.47 205.6 396.36 141.87 376.09 74.4 380.1"/>
            <g class="cls-60">
              <polygon class="cls-1" points="694.65 376.69 691.2 376.69 694.6 377.12 697.7 376.69 695.15 376.69 694.65 376.69"/>
              <polygon class="cls-1" points="730.71 377.12 732.25 377.12 732.25 376.69 730.71 376.91 730.71 377.12"/>
              <polygon class="cls-1" points="811.86 376.39 813.41 376.39 813.41 375.96 811.86 376.18 811.86 376.39"/>
              <polygon class="cls-1" points="736.59 374.63 738.53 373.26 740.6 373.04 737.52 374.63 736.59 374.63"/>
              <polygon class="cls-1" points="759.68 376.05 761.69 375.73 761.69 376.23 759.68 376.44 759.68 376.05"/>
              <polygon class="cls-1" points="35.41 392.34 29.05 390.83 30.76 390.07 33.87 390.2 35.41 392.34"/>
              <polygon class="cls-1" points="26.58 356.31 19.01 355.94 20.72 355.18 28.99 356.31 26.58 356.31"/>
              <polygon class="cls-1" points="120.47 394.01 121.03 391.99 123.16 392.1 121.37 394.57 120.47 394.01"/>
              <polygon class="cls-1" points="230.72 398.79 231.28 396.78 233.41 396.88 231.62 399.35 230.72 398.79"/>
              <polygon class="cls-1" points="332.41 392.16 332.98 390.14 335.1 390.25 333.32 392.72 332.41 392.16"/>
              <polygon class="cls-1" points="79.65 366.58 79.74 366.26 84.58 366.39 84.12 366.86 79.65 366.58"/>
              <polygon class="cls-1" points="25.42 367.43 25.98 365.41 28.11 365.52 26.32 367.98 25.42 367.43"/>
              <polygon class="cls-1" points="51.44 382.41 52 380.4 54.13 380.5 52.34 382.97 51.44 382.41"/>
              <polygon class="cls-1" points="42.93 396.12 36.51 396.12 36.51 396.39 43.7 396.9 42.93 396.12"/>
              <polygon class="cls-1" points="44.71 394.89 44.71 394.59 45.63 394.43 46.33 394.89 44.71 394.89"/>
              <polygon class="cls-1" points="162.18 395.5 162.18 395.21 163.1 395.04 163.79 395.5 162.18 395.5"/>
              <polygon class="cls-1" points="58.72 357.5 58.72 357.2 59.63 357.04 60.33 357.5 58.72 357.5"/>
              <polygon class="cls-1" points="40.93 376.59 40.93 376.29 41.85 376.12 42.55 376.59 40.93 376.59"/>
              <polygon class="cls-1" points="78.84 365.05 78.84 364.75 79.76 364.58 80.46 365.05 78.84 365.05"/>
              <polygon class="cls-1" points="149.64 392.98 149.64 392.68 150.55 392.51 151.25 392.98 149.64 392.98"/>
              <polygon class="cls-1" points="190.52 400.17 190.52 399.87 191.44 399.7 192.14 400.17 190.52 400.17"/>
              <polygon class="cls-1" points="603.75 377.41 603.75 377.11 604.67 376.94 605.38 377.41 603.75 377.41"/>
              <polygon class="cls-1" points="553.17 378.57 553.17 378.39 553.72 378.29 554.13 378.57 553.17 378.57"/>
              <polygon class="cls-1" points="112.9 393.73 112.9 393.44 113.81 393.27 114.51 393.73 112.9 393.73"/>
              <polygon class="cls-1" points="42.46 395.04 41.74 394.89 42.46 394.59 42.93 394.82 42.46 395.04"/>
              <polygon class="cls-1" points="108.04 395.27 108.04 394.69 110.42 394.5 111.49 394.98 108.04 395.27"/>
              <polygon class="cls-1" points="252.97 391.82 252.97 391.23 255.35 391.04 256.42 391.52 252.97 391.82"/>
              <polygon class="cls-1" points="608.45 378.33 610.87 377.18 612.52 377.41 609.23 378.57 608.45 378.33"/>
              <polygon class="cls-1" points="609.05 375.81 608.45 375.02 609.05 374.74 609.7 375.81 609.05 375.81"/>
              <polygon class="cls-1" points="614.86 377.08 615.12 376.94 616.81 377.08 616.16 377.29 614.86 377.08"/>
              <polygon class="cls-1" points="663.23 375.78 663.49 375.64 665.18 375.78 664.53 375.99 663.23 375.78"/>
              <polygon class="cls-1" points="626.72 378.82 633.31 378.05 635.31 378.33 628.1 379.15 626.72 378.82"/>
              <polygon class="cls-1" points="427.25 393.52 433.84 392.75 435.84 393.03 428.63 393.85 427.25 393.52"/>
              <polygon class="cls-1" points="357.27 388.23 363.86 387.45 365.86 387.74 358.65 388.56 357.27 388.23"/>
              <polygon class="cls-1" points="550.18 393.3 550.18 392.72 551.98 392.39 553.34 393.3 550.18 393.3"/>
              <polygon class="cls-1" points="559.37 372.21 559.37 371.63 561.16 371.3 562.53 372.21 559.37 372.21"/>
              <polygon class="cls-1" points="495.54 381.39 495.54 380.81 497.33 380.48 498.7 381.39 495.54 381.39"/>
              <polygon class="cls-1" points="446.3 397.71 446.3 397.13 448.1 396.8 449.46 397.71 446.3 397.71"/>
              <polygon class="cls-1" points="389.79 391.88 389.79 391.3 391.58 390.98 392.95 391.88 389.79 391.88"/>
              <polygon class="cls-1" points="488.47 378.5 488.47 377.92 490.26 377.59 491.63 378.5 488.47 378.5"/>
              <polygon class="cls-1" points="584.73 394.2 589.44 391.95 592.64 392.4 586.24 394.65 584.73 394.2"/>
              <polygon class="cls-1" points="659.71 382.1 664.42 379.85 667.62 380.3 661.22 382.55 659.71 382.1"/>
              <polygon class="cls-1" points="869.57 392.85 874.29 390.6 877.49 391.05 871.09 393.3 869.57 392.85"/>
              <polygon class="cls-1" points="813.39 385.31 818.11 383.06 821.31 383.51 814.91 385.76 813.39 385.31"/>
              <polygon class="cls-1" points="877.61 372.39 877.01 371.6 877.61 371.32 878.26 372.39 877.61 372.39"/>
              <polygon class="cls-1" points="758.4 390.68 758.91 390.4 762.19 390.68 760.93 391.08 758.4 390.68"/>
              <polygon class="cls-1" points="660.47 387.17 660.98 386.89 664.26 387.17 663 387.57 660.47 387.17"/>
              <polygon class="cls-1" points="740.56 380.86 741.06 380.59 744.35 380.86 743.08 381.26 740.56 380.86"/>
              <polygon class="cls-1" points="738.66 382.54 739.17 382.27 742.45 382.54 741.19 382.95 738.66 382.54"/>
              <polygon class="cls-1" points="636.33 394.1 636.84 393.83 640.12 394.1 638.86 394.51 636.33 394.1"/>
              <polygon class="cls-1" points="646.97 391.22 659.77 389.7 663.66 390.26 649.64 391.85 646.97 391.22"/>
              <polygon class="cls-1" points="831.47 396.03 834.62 395.66 835.58 395.8 832.12 396.19 831.47 396.03"/>
              <polygon class="cls-1" points="712.9 395.77 716.05 395.4 717.01 395.54 713.55 395.93 712.9 395.77"/>
            </g>
            <g class="cls-59">
              <polygon class="cls-6" points="885.65 385.04 830.37 385.24 821.31 383.51 885.65 385.04"/>
              <polygon class="cls-6" points="804.27 375.54 776.53 375.69 780.57 376.49 678.77 376.18 671.07 375.04 712.54 373.7 708.09 367.23 707.24 361.54 746.17 360.37 804.27 375.54"/>
              <polygon class="cls-8" points="582.48 402.88 474.01 409.87 470.83 394.52 501.48 391.47 582.48 402.88"/>
              <path class="cls-6" d="M147.38,367.17l-14.14-4.25-47.36-6.61-35.53-6.11h-3.25l1.24.88-30.28-.88,5.35-1.46-9.29-1.79,2.08-.52,22.35,1.43,102.77,10.27s12.78,2.22,13.66,4.39-7.6,4.66-7.6,4.66Z"/>
            </g>
            <g>
              <path class="cls-32" d="M205.6,396.36s-58.38-10.02-95.87-14.01c-4.98-.54-9.59-.96-13.65-1.24v-.02c.72-1.49,46.13-96.83,62.38-104.28h0c7.74-3.54,16.95-.71,25.1,4.1,9.08,5.36,16.83,13.18,19.7,17.34,8.34,12.12,2.34,98.1,2.34,98.1Z"/>
              <path class="cls-48" d="M188.78,389.55l-79.05-7.2-13.65-1.24v-.02c.72-1.49,46.13-96.83,62.38-104.28h0c7.74-3.54,16.95-.71,25.1,4.1,4.51,6.08,8.35,14.06,9.87,20.48,2.94,12.4-4.65,88.16-4.65,88.16Z"/>
              <path class="cls-14" d="M150.1,389.75s10.17-21.06,17.92-23.27c5.94-1.69,33.02,21.81,37.58,29.88l-55.5-6.61Z"/>
              <path class="cls-57" d="M150.1,389.75s11.54-23.36,19.07-23.32c7.53.04,11.22,26,11.22,26l-30.28-2.68Z"/>
              <polygon class="cls-50" points="135.8 325.78 145.1 300.41 168.23 297.62 150.1 327.97 135.8 325.78"/>
              <polygon class="cls-50" points="153.25 334.7 158.46 315.44 168.23 315.44 156.61 335.17 153.25 334.7"/>
              <polygon class="cls-50" points="180.53 300.41 184.45 290.6 186.62 293.18 182.45 300.41 180.53 300.41"/>
              <polygon class="cls-50" points="145.1 376.7 151.89 368.69 161.4 366.43 150.58 378.46 145.1 376.7"/>
              <polygon class="cls-50" points="105.43 376.53 113.9 355.28 108.06 356.85 102.77 376.09 105.43 376.53"/>
              <polygon class="cls-50" points="158.46 388.62 162.19 376.53 171.48 376.7 166.87 389.55 158.46 388.62"/>
              <polygon class="cls-50" points="169.17 386.22 171.48 379.9 173.76 379.9 170.97 386.31 169.17 386.22"/>
              <polygon class="cls-50" points="164.97 349.52 164.97 344.23 168.23 341.56 166.6 349.52 164.97 349.52"/>
              <path class="cls-16" d="M168.02,366.48c-.48.24,6.97,7.08,7.57,7.25.59.17,7,.28,7,.28,0,0-11.47-9.11-14.57-7.53Z"/>
              <path class="cls-56" d="M193.43,301.39l9.83-3.13s-10.39-14.52-25.09-20.13c0,0,9.99,5.96,15.26,23.26Z"/>
              <path class="cls-31" d="M162.19,291.94l-12.09,30.55h6.04l-14.28,46.2,12.51-.59,23.02-63.41h2.32l-5.96,38.36,14.31-.85,4.54-37.51s-5.14-18.51-12.07-23.38c-6.93-4.87-18.34,10.64-18.34,10.64Z"/>
              <path class="cls-5" d="M194.01,318.48s-7.39,32.06-3.19,48.92c0,0,3.22-36.53,3.19-48.92Z"/>
              <path class="cls-24" d="M118.25,337.17s33.66-1.94,49.98-6.91c16.32-4.96,23.26-12.01,25.78-11.79,2.52.22,13.12,0,13.12,0l.1,1.61s-10.36-1.26-13.69-.61c-3.33.64-12.81,10.59-37.6,14.93-24.79,4.34-39.55,6.31-39.55,6.31l1.86-3.53Z"/>
              <path class="cls-7" d="M115.57,342.25s14.34.21,41.61-6.46c27.27-6.67,35.55-14.44,36.93-14.79,1.39-.35,13.12,1.48,13.12,1.48l.46,7.1s-13-2.35-13.58-1.61c-.58.74-35.84,18.66-53.59,24.43s-29.15-2.06-29.15-2.06l4.19-8.09Z"/>
              <path class="cls-35" d="M122.32,329.59s22.02,1.91,42.65-2.42c20.63-4.34,27.86-14.17,29.04-14.37s12.96,3.37,12.96,3.37v1.6s-10.11-4.37-12.86-3.59c-2.75.78-11.37,12.68-42.1,17.74-30.73,5.06-33.03,3.88-33.03,3.88l3.34-6.21Z"/>
              <path class="cls-29" d="M105.07,362.79s29.78,1.45,57.12-3.71c27.34-5.16,29.7-4.55,29.7-4.55l15.34,4.66.04,3.6s-12.98-4.68-15.5-4.99-23.29,4.02-43.97,6.5c-20.68,2.48-43.48,0-43.48,0l.75-1.51Z"/>
              <path class="cls-38" d="M160.47,372.81s12.92,2.95,16.16,3.73c3.24.77,8.86-.27,8.86-.27l1.8,1.46s-6.96.05-10.26,0c-3.31-.05-20.09.02-20.09.02,0,0,2.58-3.56,3.54-4.94Z"/>
              <path class="cls-35" d="M155.56,379.9s4.5-1.46,9.41-1.29c4.91.17,11.45,2.45,13.18,3.05,1.73.6,12.64-.96,12.64-.96l.76.67s-11.27.82-13.28.8c-2.01-.02-8.63-2.89-15.1-2.93-6.47-.04-8.44,2.13-8.44,2.13l.82-1.48Z"/>
              <path class="cls-58" d="M147.8,287.62s1.53-.75,2.36-.95c.83-.21,21.07,16.48,25.38,21.42,7.52,8.64,16.73,32.22,17.35,33.25.62,1.02,14.56,15.78,14.56,15.78l.02-.94s-11.02-13.05-14.34-18.35c-3.32-5.29-8.67-18.98-15-27-4.34-5.5-22.91-21.37-24.87-23.31-1.96-1.94-1.62-4.71-1.62-4.71l-3.83,4.81Z"/>
              <path class="cls-34" d="M147.8,287.62s-27.12,45.78-37.48,64.78c0,0,22.68-45.54,37.48-64.78Z"/>
              <path class="cls-45" d="M151.63,282.81s4.93-5.9,11.34-6.93c6.4-1.03,20.05,4.48,20.05,4.48,0,0-11.91-6.72-20.51-5.13-6.87,1.27-10.87,7.58-10.87,7.58Z"/>
              <path class="cls-28" d="M189.17,291.09c-.39.78,4.17,15.45,4.84,15.55.66.1,5.27-5.99,5.21-7.09-.05-1.1-10.05-8.46-10.05-8.46Z"/>
            </g>
            <g>
              <path class="cls-23" d="M783.11,378.42h-57.77s-5.03-130.05,15.38-146.11c2.51-1.98,5.05-1.25,7.56,1.54,17.92,19.88,34.83,144.57,34.83,144.57Z"/>
              <path class="cls-40" d="M782.77,376.03l-50.5,2.35s-10.59-109.33,16-144.53c17.92,19.88,34.49,142.18,34.49,142.18Z"/>
              <path class="cls-5" d="M741.65,245.77s-21.23,100.06-4.24,133.16l-5.14-.55s-8.9-85.42,9.38-132.61Z"/>
              <path class="cls-11" d="M731.96,250.76s4.21,3.5,6.59,4.23,19.74,0,19.74,0l.31.95s-18.45.45-20.39-.36-6.25-4.11-6.25-4.11v-.71Z"/>
              <path class="cls-43" d="M701.77,379.56s-6.83-44.81,0-47.97c6.83-3.15,46.03,8.1,51.25,16.64,5.22,8.54,5.83,31.64,5.83,31.64l-57.08-.31Z"/>
              <path class="cls-44" d="M702.31,376.03s1.22-29.71,7.26-33.27c6.04-3.56,39.64-.99,43.45,5.47,3.81,6.47,5.83,31.64,5.83,31.64l-56.54-3.84Z"/>
              <path class="cls-21" d="M701.77,331.59c-1.65,2.09,5.63,10.54,7.8,11.16,2.17.63,42.91,4.73,42.91,4.73,0,0-4.94-6.33-25.67-12.32-20.73-6-25.05-3.57-25.05-3.57Z"/>
              <polygon class="cls-50" points="757.76 329.19 754.87 309.21 759.2 309.21 763.44 330.35 757.76 329.19"/>
              <polygon class="cls-50" points="762.62 315.02 762.62 308.68 765.11 307.75 765.11 313.33 762.62 315.02"/>
              <polygon class="cls-50" points="766.21 367.14 765.11 349.64 769.89 346.74 771.14 367.14 766.21 367.14"/>
              <polygon class="cls-50" points="762.62 368.63 762.62 364.51 763.86 364.5 763.86 369.23 762.62 368.63"/>
              <polygon class="cls-50" points="705.96 376.03 705.57 370.37 712.06 362.35 710.51 376.85 705.96 376.03"/>
              <polygon class="cls-50" points="730.99 378.73 727.7 350.66 750.64 350.25 748.1 377.67 730.99 378.73"/>
              <polygon class="cls-50" points="750.64 378.08 750.64 370.5 752.49 369.6 752.49 378.08 750.64 378.08"/>
              <polygon class="cls-50" points="723.21 359.86 723.21 355.22 727.12 355.69 725.16 360.92 723.21 359.86"/>
              <polygon class="cls-31" points="745.28 262.26 748.1 308.68 758.86 311.94 749.76 263.52 752.07 263.36 760.4 298.97 765.11 297.06 752.49 243.06 745.28 241.9 745.28 262.26"/>
              <polygon class="cls-31" points="768.12 336.43 766.44 318.91 769.89 316.3 773.46 336.43 768.12 336.43"/>
              <polygon class="cls-31" points="717.48 379.07 712.06 350.48 712.06 346.74 741.65 348.55 741.65 375.43 743.27 375.43 743.27 348.57 748.1 349.8 745.28 379.8 717.48 379.07"/>
              <path class="cls-20" d="M727.86,275.44s5.32-8.22,7.62-8.87c2.3-.65,15.67,11.19,29.28,11.47l.35,1.45s-4.61,2.24-13.8-2.41c-9.19-4.65-14.51-7.13-16.99-6.4-2.48.72-6.61,6.25-6.61,6.25l.16-1.48Z"/>
              <path class="cls-35" d="M727.35,280.37s3.14-2.78,6.14-2.58c3,.21,23.94,14.13,33.45,9.49l2.95,13.63s-12.65,6.1-25.04-.92c-12.39-7.02-18.54-6.82-18.54-6.82l1.04-12.81Z"/>
              <path class="cls-35" d="M724.79,326.08s.31-5.94,5.65-7.69c3.37-1.1,12.21,6.71,44.3,7.69l-.24-1.32s-24.74,2.03-40.39-8.47c-6.82-3.86-9.32,6.64-9.32,6.64v3.15Z"/>
              <path class="cls-35" d="M699.57,335.48s3.03,13.72,5.86,15.96c2.83,2.25,50.16,4.68,50.16,4.68l.51,1.26s-49.29-2.28-51.16-3.84c-1.87-1.56-5.87-15.1-5.87-15.1l.5-2.96Z"/>
              <path class="cls-12" d="M698.74,345.82s2.23,12.48,4.83,15.56c2.6,3.07,27.24-.76,39.01-.47,11.78.29,14.78,2.35,14.78,2.35l.52,3.87s-8.18-3.69-28.63-3.38c-20.45.31-24.48,1.3-26.1.73-1.63-.57-4.2-11.84-4.2-11.84l-.21-6.82Z"/>
              <path class="cls-10" d="M699.2,356.59s2.65,9.46,3.72,9.78c1.08.33,21.37-2.4,35.09-1.89,13.71.51,19.96,3.4,19.96,3.4l.3,1.72s-7.02-4.91-26.23-4.21c-19.21.7-28.13,1.87-29.21,1.75-1.08-.12-3.64-10.54-3.64-10.54Z"/>
              <path class="cls-28" d="M705.96,339.76c-1.03.27.57,6.66.93,6.98s8.3-2.28,8.56-3.18c.27-.9-8.31-4.11-9.5-3.8Z"/>
              <path class="cls-3" d="M748.28,233.85s18.78,36.19,30.75,117.59c0,0-11.97-96.87-30.75-117.59Z"/>
            </g>
            <polygon class="cls-51" points="673.16 380.69 668.86 377.05 642.42 376.38 668.28 378.54 673.16 380.69"/>
            <g>
              <polygon class="cls-51" points="782.37 379.24 792.79 358.35 787.97 332.19 795.9 357.29 782.94 379.23 782.37 379.24"/>
              <polygon class="cls-17" points="782.97 378.54 786.94 354.59 798.01 326.91 783.89 378.54 782.97 378.54"/>
              <polygon class="cls-51" points="702.48 379.51 688.3 357.33 670.08 342.71 702.48 379.51"/>
              <polygon class="cls-51" points="846.67 385.04 846.67 371.38 851.12 339.87 846.67 385.04"/>
              <polygon class="cls-51" points="845.93 384.01 843.25 376.35 829.3 361.11 845.22 376.41 846.52 383.17 845.93 384.01"/>
              <polygon class="cls-51" points="204.83 396.53 210.47 385.26 218.89 366.6 206.92 385.26 204.83 396.53"/>
              <polygon class="cls-51" points="206.92 396.53 214.8 390.79 208.56 397.36 206.92 396.53"/>
              <polygon class="cls-17" points="99.55 374.92 94.09 356.1 87.11 306.48 100.78 372.4 99.55 374.92"/>
              <polygon class="cls-51" points="101.37 371.2 98.88 356.95 97.35 327 100.29 361.17 101.37 371.2"/>
            </g>
            <g>
              <path class="cls-39" d="M527.11,394.52h-29.28s.27-.52.79-1.31c1.26-1.86,4.02-5.2,8.24-6.26,4.35-1.1,13.06,3.39,17.51,5.93,1.67.96,2.74,1.64,2.74,1.64Z"/>
              <path class="cls-39" d="M493.12,393.52l-22.29,1.01s.25-.35.7-.87c1.07-1.23,3.29-3.42,6.15-4.32,2.73-.86,8.71,1.3,12.37,2.82,1.82.76,3.07,1.37,3.07,1.37Z"/>
              <path class="cls-39" d="M695.18,379.47h-24.97s.86-.97,2.31-2.22c3.97-3.44,12.37-8.96,19.5-1.94,1.1,1.08,2.15,2.45,3.16,4.16Z"/>
              <path class="cls-39" d="M45.31,350.2h-24.97s.69-.78,1.86-1.83c3.95-3.55,13.45-10.27,21.08-1.1h0c.7.85,1.38,1.82,2.04,2.94Z"/>
              <path class="cls-39" d="M841.8,384.74h-10.01s.23-1.1.81-2.11c.52-.92,1.32-1.78,2.5-1.7,1.32.1,3.16,1.19,4.57,2.18,1.22.86,2.13,1.64,2.13,1.64Z"/>
              <path class="cls-39" d="M20.07,347.07h-10s.03-.16.11-.4c.29-1.01,1.21-3.55,3.2-3.4,1.37.1,3.25,1.23,4.68,2.24,1.17.83,2.02,1.56,2.02,1.56Z"/>
              <path class="cls-39" d="M885.65,385.04h-41.25s3.82-5.73,8.09-10.25c2.57-2.72,5.29-5,7.45-5.35,5.73-.92,21.03,1.58,22.68,5.9.24.61.47,1.25.69,1.89,1.33,3.85,2.35,7.81,2.35,7.81Z"/>
              <path class="cls-53" d="M883.3,377.23c-7.2,3.74-30.97,4.67-31.1-.09-.02-.83.08-1.61.29-2.35,2.57-2.72,5.29-5,7.45-5.35,5.73-.92,21.03,1.58,22.68,5.9.24.61.47,1.25.69,1.89Z"/>
              <path class="cls-13" d="M839.68,383.11c-.43.38-.99.65-1.74.74-2.49.3-4.48-.7-5.33-1.22.52-.92,1.32-1.78,2.5-1.7,1.32.1,3.16,1.19,4.57,2.18Z"/>
              <path class="cls-4" d="M692.02,375.3c-.67,1.44-2.27,2.85-5.91,3.16-7.99.7-13.59-1.23-13.59-1.23,3.97-3.44,12.37-8.96,19.5-1.94Z"/>
              <path class="cls-52" d="M524.37,392.88c-8.14,2.02-25.75.34-25.75.34,1.26-1.86,4.02-5.2,8.24-6.26,4.35-1.1,13.06,3.39,17.51,5.93Z"/>
              <path class="cls-46" d="M490.05,392.15s0,0,0,0c-4.52,2.31-18.51,1.5-18.51,1.5v-.02c1.07-1.23,3.29-3.42,6.15-4.32,2.73-.86,8.71,1.3,12.37,2.82Z"/>
              <path class="cls-47" d="M43.28,347.26h0c-.06.17-.8,2.01-8.66,2.38-8.21.38-12.42-1.28-12.42-1.28,3.95-3.55,13.45-10.27,21.08-1.1Z"/>
              <path class="cls-33" d="M18.05,345.51c-2.16,1.77-7.59,1.19-7.87,1.16.29-1.01,1.21-3.55,3.2-3.4,1.37.1,3.25,1.23,4.68,2.24Z"/>
              <path class="cls-36" d="M866.65,380.33s4.29-2.46,5.84-.45l-5.84.45Z"/>
              <path class="cls-19" d="M835.41,383.74s1.75-1.49,2.53.11c0,0-1.22.19-2.53-.11Z"/>
              <path class="cls-27" d="M688.44,378.06s1.35-2.02,2.34-1.17c0,0-.33.79-2.34,1.17Z"/>
              <path class="cls-26" d="M23.4,348.74s4.79-1.62,6.72.92c0,0-4.23-.16-6.72-.92Z"/>
              <path class="cls-2" d="M15.54,346.52s1-1.19,1.95-.65c0,0-.72.48-1.95.65Z"/>
              <path class="cls-22" d="M512.83,393.87s5.96-1.38,7.76-.36c0,0-5.56.83-7.76.36Z"/>
              <path class="cls-37" d="M484.21,393.49s1.73-.77,2.55-.35c0,0-1.34.24-2.55.35Z"/>
            </g>
            <g>
              <polygon class="cls-1" points="340.89 369.76 337.45 369.76 340.85 371.04 343.95 369.76 341.39 369.76 340.89 369.76"/>
              <polygon class="cls-1" points="376.95 371.04 378.5 371.04 378.5 369.76 376.95 370.4 376.95 371.04"/>
              <polygon class="cls-1" points="382.84 363.75 384.78 359.75 386.85 359.11 383.77 363.75 382.84 363.75"/>
              <polygon class="cls-1" points="405.92 367.89 407.94 366.96 407.94 368.43 405.92 369.05 405.92 367.89"/>
              <polygon class="cls-1" points="147.52 375.34 147.86 371.8 149.14 371.99 148.07 376.31 147.52 375.34"/>
              <polygon class="cls-1" points="101.02 379.03 97.18 379.03 97.18 379.51 101.49 380.4 101.02 379.03"/>
              <polygon class="cls-1" points="102.09 376.87 102.09 376.35 102.64 376.06 103.06 376.87 102.09 376.87"/>
              <polygon class="cls-1" points="165.02 373.52 165.02 373 165.57 372.71 165.99 373.52 165.02 373.52"/>
              <polygon class="cls-1" points="250 371.87 250 371 250.92 370.51 251.62 371.87 250 371.87"/>
              <polygon class="cls-1" points="199.41 375.26 199.41 374.74 199.96 374.44 200.38 375.26 199.41 375.26"/>
              <polygon class="cls-1" points="142.98 374.85 142.98 374.33 143.53 374.04 143.95 374.85 142.98 374.85"/>
              <polygon class="cls-1" points="100.75 377.15 100.31 376.87 100.75 376.35 101.02 376.75 100.75 377.15"/>
              <polygon class="cls-1" points="140.07 377.55 140.07 376.52 141.5 376.19 142.14 377.03 140.07 377.55"/>
              <polygon class="cls-1" points="254.69 374.58 257.12 371.19 258.76 371.87 255.47 375.25 254.69 374.58"/>
              <polygon class="cls-1" points="255.3 367.19 254.69 364.88 255.3 364.08 255.95 367.21 255.3 367.19"/>
              <polygon class="cls-1" points="261.1 370.92 261.36 370.51 263.05 370.92 262.4 371.53 261.1 370.92"/>
              <polygon class="cls-1" points="309.47 367.11 309.73 366.7 311.42 367.11 310.77 367.71 309.47 367.11"/>
              <polygon class="cls-1" points="272.97 376.01 279.56 373.73 281.56 374.58 274.35 376.97 272.97 376.01"/>
              <polygon class="cls-1" points="565.44 361.06 565.44 360.18 566.37 359.69 567.07 361.06 565.44 361.06"/>
              <polygon class="cls-1" points="583.21 362.41 585.63 359.03 587.28 359.71 583.99 363.09 583.21 362.41"/>
              <polygon class="cls-1" points="523.86 357.2 523.25 354.89 523.86 354.08 524.51 357.21 523.86 357.2"/>
              <polygon class="cls-1" points="672.52 357.12 672.78 356.7 674.47 357.12 673.82 357.72 672.52 357.12"/>
              <polygon class="cls-1" points="662.37 344.89 662.63 344.48 664.32 344.89 663.67 345.5 662.37 344.89"/>
              <polygon class="cls-1" points="615.21 357.92 621.8 355.65 623.8 356.49 616.59 358.88 615.21 357.92"/>
            </g>
            <g>
              <path class="cls-55" d="M544.52,373.68l-2.32.21h-.04l-8.36.77h0l-3.03.28-2.43-1.76s-.87-.94.8-1.5h0c.96-.33,2.75-.52,6.01-.33,6.82.39,9.36,2.32,9.36,2.32Z"/>
              <path class="cls-55" d="M564.75,387.67h0c-.75.25-1.7.5-2.84.74-.11.02-.26.04-.44.04-3.3.13-16.25-2.8-18.28-4.47-5.72-4.7-8.96-7.07-9.94-7.78h0c-.21-.16-.32-.23-.32-.23l12.85-1.55s.22.1.58.25c1.24.56,4.28,1.91,5.23,2.24,3.97,1.37,8.86,3.06,10.81,4.31,5.2,3.32,6.47,5.05,2.36,6.44Z"/>
              <path class="cls-8" d="M544.52,373.68l-2.32.21h-.04s-4.59-1.73-5.84-1.93c-3.4-.55-7.18-.28-7.18-.28h0c.96-.33,2.75-.52,6.01-.33,6.82.39,9.36,2.32,9.36,2.32Z"/>
              <path class="cls-8" d="M564.75,387.67h0c-.75.25-1.7.5-2.84.74-.11.02-.26.04-.44.04,1.43-.37,3.9-2.33,3.93-2.94s-4.53-4.19-7.29-5.01c-2.76-.82-12.54-5.32-12.54-5.32l-12.32,1.02h0c-.21-.16-.32-.23-.32-.23l12.85-1.55s.22.1.58.25c1.24.56,4.28,1.91,5.23,2.24,3.97,1.37,8.86,3.06,10.81,4.31,5.2,3.32,6.47,5.05,2.36,6.44Z"/>
            </g>
            <g>
              <path class="cls-55" d="M595.37,385.28l-2.31.29h-.04s-8.33,1.05-8.33,1.05h0s-3.01.38-3.01.38l-2.49-1.67s-.9-.91.75-1.52h0c.95-.36,2.73-.61,6-.53,6.83.16,9.44,2,9.44,2Z"/>
              <path class="cls-55" d="M616.07,398.57h0c-.74.28-1.68.56-2.81.84-.11.03-.26.05-.44.06-3.29.24-16.33-2.25-18.42-3.85-5.87-4.51-9.2-6.77-10.2-7.44h0c-.22-.15-.33-.22-.33-.22l12.79-1.98s.22.09.59.23c1.26.52,4.35,1.77,5.3,2.06,4.02,1.23,8.95,2.76,10.95,3.94,5.31,3.14,6.64,4.83,2.58,6.35Z"/>
              <path class="cls-8" d="M595.37,385.28l-2.31.29h-.04s-4.65-1.57-5.9-1.73c-3.42-.43-7.18-.04-7.18-.04h0c.95-.36,2.73-.61,6-.53,6.83.16,9.44,2,9.44,2Z"/>
              <path class="cls-8" d="M616.07,398.57h0c-.74.28-1.68.56-2.81.84-.11.03-.26.05-.44.06,1.42-.42,3.82-2.46,3.83-3.08.01-.61-4.67-4.04-7.46-4.76-2.78-.72-12.71-4.89-12.71-4.89l-12.28,1.44h0c-.22-.15-.33-.22-.33-.22l12.79-1.98s.22.09.59.23c1.26.52,4.35,1.77,5.3,2.06,4.02,1.23,8.95,2.76,10.95,3.94,5.31,3.14,6.64,4.83,2.58,6.35Z"/>
            </g>
          </g>
        </g>
      </g>
    </g>
  </g>
</svg>