<?xml version="1.0" encoding="UTF-8"?>
<svg xmlns="http://www.w3.org/2000/svg" xmlns:xlink="http://www.w3.org/1999/xlink" viewBox="0 0 888.89 400">
  <defs>
    <style>
      .cls-1 {
        fill: #ce6919;
      }

      .cls-1, .cls-2, .cls-3, .cls-4, .cls-5, .cls-6, .cls-7, .cls-8, .cls-9 {
        stroke-width: 0px;
      }

      .cls-10 {
        isolation: isolate;
      }

      .cls-2 {
        fill: #9c5118;
      }

      .cls-3 {
        fill: #fdddb1;
      }

      .cls-4 {
        fill: none;
      }

      .cls-5 {
        fill: url(#_Áåçûìÿííûé_ãðàäèåíò_7-2);
      }

      .cls-6 {
        fill: url(#_Áåçûìÿííûé_ãðàäèåíò_7);
      }

      .cls-11 {
        clip-path: url(#clippath);
      }

      .cls-7 {
        fill: #56261a;
      }

      .cls-8 {
        fill: url(#_Áåçûìÿííûé_ãðàäèåíò_331);
        mix-blend-mode: multiply;
      }

      .cls-9 {
        fill: #853b10;
      }
    </style>
    <clipPath id="clippath">
      <rect class="cls-4" width="888.89" height="400" transform="translate(888.89 400) rotate(180)"/>
    </clipPath>
    <linearGradient id="_Áåçûìÿííûé_ãðàäèåíò_7" data-name="Áåçûìÿííûé ãðàäèåíò 7" x1="667.16" y1="312.66" x2="673.55" y2="353.91" gradientUnits="userSpaceOnUse">
      <stop offset="0" stop-color="#a24410"/>
      <stop offset=".43" stop-color="#9f4310"/>
      <stop offset=".72" stop-color="#964010"/>
      <stop offset=".97" stop-color="#873b10"/>
      <stop offset="1" stop-color="#853b10"/>
    </linearGradient>
    <linearGradient id="_Áåçûìÿííûé_ãðàäèåíò_7-2" data-name="Áåçûìÿííûé ãðàäèåíò 7" x1="475.06" y1="336.66" x2="674.28" y2="336.66" xlink:href="#_Áåçûìÿííûé_ãðàäèåíò_7"/>
    <linearGradient id="_Áåçûìÿííûé_ãðàäèåíò_331" data-name="Áåçûìÿííûé ãðàäèåíò 331" x1="582.48" y1="357.28" x2="582.48" y2="308.95" gradientUnits="userSpaceOnUse">
      <stop offset="0" stop-color="#9d397e"/>
      <stop offset="1" stop-color="#fd9d6a"/>
    </linearGradient>
  </defs>
  <g class="cls-10">
    <g id="Layer_2" data-name="Layer 2">
      <g id="_2" data-name="2">
        <g class="cls-11">
          <g>
            <g>
              <path class="cls-6" d="M689.89,310.93c-5.76,17.3-15.37,32.94-30.15,46.36h-8.67l23.21-30.97,4.07-14.43,2.99-.24.33-.03,3.12-.26.56-.05,4.55-.38Z"/>
              <path class="cls-5" d="M674.28,326.31c-.88,3.14-2.23,6.24-3.98,9.3-.25.45-.52.89-.79,1.34-1.68,2.75-3.69,5.47-5.99,8.15-.35.41-.7.83-1.08,1.24-3.28,3.69-7.1,7.34-11.36,10.94l-163.97-5.11-4.6-11.09-.38-.91-2.85-6.85-.22-.53-4-9.65,30.58-7.11s62.57,12.47,105.03,12.47,63.61-2.21,63.61-2.21Z"/>
              <path class="cls-1" d="M674.28,326.31s-19.17,10.36-69.4,13.64c-47.71,3.11-129.81-16.79-129.81-16.79l30.58-7.11s62.57,12.47,105.03,12.47,63.61-2.21,63.61-2.21Z"/>
              <path class="cls-7" d="M505.88,317.92l-23.3,5.36s76.36,14.75,115.15,14.75,68.05-10.05,68.05-10.05c0,0-31.65,2.14-63.9,2.14s-96-12.19-96-12.19Z"/>
              <polygon class="cls-2" points="526.47 325.92 517.67 329.4 529.67 331.27 536.42 327.47 526.47 325.92"/>
              <polygon class="cls-2" points="578.06 333.79 588.13 334.59 587.33 337.73 575.85 336.94 578.06 333.79"/>
              <polygon class="cls-1" points="678.35 311.89 678.35 309.13 689.89 308.95 689.89 310.93 678.35 311.89"/>
              <polygon class="cls-1" points="678.35 309.13 672.98 326.43 672.98 326.94 674.28 326.31 678.35 311.89 678.35 309.13"/>
              <polygon class="cls-9" points="574.69 343.88 574.69 344.1 563.03 343.41 551.84 342.59 511.86 339.31 493.24 336.81 484.17 334.73 479.28 333.33 479.07 332.8 485.18 334.41 495.7 336.19 534.83 340.51 554.64 342.29 564.43 342.99 574.69 343.88"/>
              <polygon class="cls-9" points="585.79 344.21 594.14 344.58 585.73 344.45 585.79 344.21"/>
              <polygon class="cls-9" points="594.14 344.58 609.74 344.8 605.7 345.08 594.14 344.58"/>
              <path class="cls-9" d="M670.3,335.61c-.25.45-.52.89-.79,1.34l-15.68,4.55-33.14,3.47-10.94-.16,29.7-2.07,30.86-7.13Z"/>
              <polygon class="cls-9" points="533 346.97 533 347.5 520.33 347.2 509.18 346.54 498.53 345.64 487.78 343.06 482.5 341.08 482.13 340.17 489.76 342.29 500.27 344.12 511.32 345.8 533 346.97"/>
              <polygon class="cls-9" points="605.07 348.28 592.45 348.15 580.06 348.13 567.72 347.83 555.51 347.08 555.47 347.39 579.82 348.29 592.45 348.45 605.07 348.52 605.07 348.28 605.07 348.28"/>
              <path class="cls-9" d="M663.52,345.1c-.35.41-.7.83-1.08,1.24l-1.34.26-5.91.89-11.56,1.33-24.32.75v-.25l12.18-.6,11.92-.95,12.4-1.48,5.91-.91,1.81-.28Z"/>
              <polygon class="cls-9" points="685.34 311.3 682.67 319.96 678.7 329.5 666.9 348.66 666.42 348.38 678.09 329.38 682.04 319.13 684.78 311.35 685.34 311.3"/>
              <polygon class="cls-9" points="681.66 311.61 677.43 327.78 676.98 327.66 681.33 311.64 681.66 311.61"/>
            </g>
            <path class="cls-8" d="M689.89,310.93v-1.98l-11.54.18-5.37,17.3c-5.17.46-25.89,2.08-62.31,2.08-42.46,0-105.03-12.47-105.03-12.47l-30.58,7.11,4,9.65.22.53,2.85,6.85.38.91,4.6,11.09,163.97,5.11h8.67c14.77-13.42,24.39-29.06,30.15-46.36h0ZM681.33,311.64l-.73.06,1.17-.1h-.11s-.33.04-.33.04Z"/>
            <path class="cls-3" d="M660.31,356.11c-22.63-.59-45.26-.86-67.89-1.23-5.63-.09-11.26-.42-16.89-.62-5.63-.2-11.26-.37-16.89-.57-11.36-.4-22.72-.74-34.08-1.09-12.71-.38-25.42-.99-38.13-1.33-.69-.02-.68.75,0,.79,11.24.68,22.5,1.05,33.75,1.55,11.36.5,22.71.98,34.08,1.3,11.26.31,22.52.63,33.78.73,11.37.1,22.73.73,34.09.96,12.73.26,25.44.44,38.17.44.81,0,.82-.92,0-.94Z"/>
            <path class="cls-3" d="M531.47,356.7c-9.27-1.45-18.66-1.67-28.09-1.86-4.7-.1-9.41-.21-14.09-.58-2.45-.2-4.9-.45-7.31-.87-.57-.1-1.15-.19-1.71-.32-.73-.17-1.19-.24-.56-.72.74-.57,1.99-.68,2.76-1.28.23-.18.1-.59-.3-.55-1.05.09-1.97.46-2.92.8-.74.26-1.55.51-1.65,1.2-.2,1.38,2.45,1.68,3.7,1.9,5.33.94,10.73,1.49,16.18,1.78,11.2.59,22.56-.06,33.67,1.38.76.1,1.11-.75.33-.87Z"/>
            <path class="cls-3" d="M609.59,359.27c-11.04-.47-22.08-.61-33.12-.85-10.85-.24-21.7-.79-32.54-1.17-.2,0-.24.22-.05.26,5.05,1.11,10.5.95,15.71,1.04,5.52.1,11.04.09,16.56.27,11.15.37,22.28.84,33.44.98.46,0,.46-.51,0-.53Z"/>
            <path class="cls-3" d="M492.15,358.58c-.31,0-.6-.04-.91-.02-.36.02-.69.05-1.05.02-.81-.06-1.6-.24-2.39-.36-1.78-.28-3.59-.46-5.38-.68-.46-.06-.68.43-.2.54,1.95.42,3.9.88,5.87,1.22,1.3.23,3.76.87,4.32-.46.05-.12-.09-.26-.26-.26Z"/>
            <path class="cls-3" d="M558.86,362.09c-3.06-.12-6.1.06-9.16.09-3.2.03-6.29-.31-9.47-.58-6.37-.54-12.78-1.25-19.1-2.05-.46-.06-.68.44-.2.54,3.21.62,6.39,1.37,9.64,1.83,3.09.44,6.21.69,9.35.84,3.24.16,6.52.05,9.77.1,3.11.05,6.17.07,9.23-.39.29-.04.21-.36-.06-.38Z"/>
          </g>
        </g>
      </g>
    </g>
  </g>
</svg>