<?xml version="1.0" encoding="UTF-8"?>
<svg xmlns="http://www.w3.org/2000/svg" xmlns:xlink="http://www.w3.org/1999/xlink" viewBox="0 0 888.89 400">
  <defs>
    <style>
      .cls-1, .cls-2, .cls-3, .cls-4, .cls-5, .cls-6, .cls-7, .cls-8, .cls-9, .cls-10, .cls-11, .cls-12, .cls-13 {
        stroke-width: 0px;
      }

      .cls-1, .cls-3, .cls-4, .cls-5, .cls-8, .cls-9, .cls-10, .cls-13 {
        fill-rule: evenodd;
      }

      .cls-1, .cls-12 {
        fill: #fff;
      }

      .cls-2 {
        fill: url(#linear-gradient);
      }

      .cls-3 {
        fill: url(#_Áåçûìÿííûé_ãðàäèåíò_254-3);
      }

      .cls-3, .cls-4, .cls-7, .cls-8, .cls-10, .cls-11, .cls-13 {
        mix-blend-mode: screen;
      }

      .cls-4 {
        fill: url(#_Áåçûìÿííûé_ãðàäèåíò_254-4);
      }

      .cls-5 {
        fill: #4685e4;
        mix-blend-mode: multiply;
        opacity: .15;
      }

      .cls-14 {
        isolation: isolate;
      }

      .cls-6 {
        fill: none;
      }

      .cls-7 {
        fill: url(#radial-gradient);
      }

      .cls-8, .cls-11 {
        fill: #7ae7f8;
        opacity: .6;
      }

      .cls-9 {
        fill: #fdf5ff;
      }

      .cls-15 {
        clip-path: url(#clippath);
      }

      .cls-10 {
        fill: url(#_Áåçûìÿííûé_ãðàäèåíò_254);
      }

      .cls-13 {
        fill: url(#_Áåçûìÿííûé_ãðàäèåíò_254-2);
      }
    </style>
    <clipPath id="clippath">
      <rect class="cls-6" width="888.89" height="400" transform="translate(888.89 400) rotate(180)"/>
    </clipPath>
    <linearGradient id="linear-gradient" x1="1115.97" y1="413.06" x2="1115.97" y2="304.21" gradientTransform="translate(1550) rotate(-180) scale(1 -1)" gradientUnits="userSpaceOnUse">
      <stop offset=".27" stop-color="#fcca43"/>
      <stop offset=".71" stop-color="#fd4c42"/>
      <stop offset="1" stop-color="#8f196d"/>
    </linearGradient>
    <linearGradient id="_Áåçûìÿííûé_ãðàäèåíò_254" data-name="Áåçûìÿííûé ãðàäèåíò 254" x1="1087.33" y1="313.17" x2="1091.41" y2="370.8" gradientTransform="translate(1550) rotate(-180) scale(1 -1)" gradientUnits="userSpaceOnUse">
      <stop offset="0" stop-color="#000"/>
      <stop offset=".99" stop-color="#70bbb1"/>
    </linearGradient>
    <linearGradient id="_Áåçûìÿííûé_ãðàäèåíò_254-2" data-name="Áåçûìÿííûé ãðàäèåíò 254" x1="1113.18" y1="316.19" x2="1116.21" y2="434.43" xlink:href="#_Áåçûìÿííûé_ãðàäèåíò_254"/>
    <linearGradient id="_Áåçûìÿííûé_ãðàäèåíò_254-3" data-name="Áåçûìÿííûé ãðàäèåíò 254" x1="640.83" y1="370.15" x2="793.53" y2="370.15" xlink:href="#_Áåçûìÿííûé_ãðàäèåíò_254"/>
    <linearGradient id="_Áåçûìÿííûé_ãðàäèåíò_254-4" data-name="Áåçûìÿííûé ãðàäèåíò 254" x1="1501.52" y1="331.49" x2="1504.75" y2="377.1" xlink:href="#_Áåçûìÿííûé_ãðàäèåíò_254"/>
    <radialGradient id="radial-gradient" cx="504.76" cy="355.54" fx="504.76" fy="355.54" r="61.63" gradientTransform="translate(-377.16 66.75) scale(1.44 .74)" gradientUnits="userSpaceOnUse">
      <stop offset="0" stop-color="#fda800"/>
      <stop offset=".22" stop-color="#b27600"/>
      <stop offset=".43" stop-color="#724c00"/>
      <stop offset=".62" stop-color="#412b00"/>
      <stop offset=".78" stop-color="#1d1300"/>
      <stop offset=".91" stop-color="#070500"/>
      <stop offset="1" stop-color="#000"/>
    </radialGradient>
  </defs>
  <g class="cls-14">
    <g id="Layer_2" data-name="Layer 2">
      <g id="_3" data-name="3">
        <g class="cls-15">
          <g>
            <rect class="cls-2" x="-22.22" y="304.21" width="912.51" height="108.85"/>
            <path class="cls-5" d="M-2.45,304.21v9.15c8.12,1,31.47,3.65,49.21,3.45,21.81-.23,28.61.64,26.57,10.13-2.04,9.49,118.18,5.13,118.18,5.13,0,0-11.2,1.97-10.52,5.93.63,3.67,25.75.51,29.23.06-2.52.39-15.95,2.65-15.95,5.86,0,3.57,88.23,2.78,101.86-2.96,13.63-5.74-10.56-11.26-9.2-11.66,1.36-.4,133.21,3.16,136.61-2.33,3.4-5.48-41.22-5.57-41.22-5.57,0,0,11.58,4.74,6.47,5.57-5.11.84-83.55-2.9-82.79-10.16.77-7.25,217.35-.16,219.06,4.19,1.63,4.17-18.04,4.25-19.65,4.25,2.83.03,59.17.71,59.17,5.33s-42.16,5.64-41.34,6.53c.83.89,100.1-2.37,101.89,0,1.78,2.37-13.03.59-13.55,1.78-.51,1.18,120.61,3.26,121.88.59,1.28-2.66,54.17-2.96,60.04-2.37,5.01.5,1.29,2.95.09,3.67,1.99-1.1,12.18-6.81,12.18-8.41,0-1.79-100.16,6.51-103.23-1.79-3.07-8.29,33.47-6.22,33.98-8,.51-1.78-77.17-.29-67.93-7.86,7.06-5.78,152.12,4.31,219.99,9.38v-19.89H-2.45Z"/>
            <path class="cls-5" d="M-2.45,304.21v6.21h250.84c-8.4-.63-14.46-1.41-15.97-2.35-6.47-4.03,292.98,2.14,292.98,2.14,0,0,236.08-5.5,238.81-2.89,1.07,1.02-.86,2.14-3.6,3.1h127.98v-6.21H-2.45Z"/>
            <path class="cls-5" d="M347.4,339.04s23.51,2.01,23.51,3.51-67.96,1.17-67.96,0,15.84-2.18,15.84-2.18c0,0-3.45.42-2.17,1.51,1.28,1.09,36.41,2.02,30.79-2.84Z"/>
            <path class="cls-5" d="M470.46,332.53s33.93.7,33.93,1.23-98.11.41-98.11,0,22.87-.76,22.87-.76c0,0-4.98.15-3.14.53,1.84.38,52.56.71,44.45-1Z"/>
            <path class="cls-5" d="M110.84,336.78s53.25,2,53.25,3.51-153.95,1.17-153.95,0,35.88-2.18,35.88-2.18c0,0-7.81.42-4.92,1.51,2.89,1.09,82.48,2.02,69.74-2.84Z"/>
            <path class="cls-5" d="M172.38,342.92s18.6,1,18.6,1.76-53.79.59-53.79,0,12.54-1.09,12.54-1.09c0,0-2.73.21-1.72.75,1.01.54,28.82,1.01,24.37-1.42Z"/>
            <path class="cls-5" d="M778.87,344.51s-41.05,4.75-52.8,4.24c-11.75-.5-1.28-2.1-1.28-2.1,0,0-81.76-.5-83.81,2.14-2.04,2.64,98.97,4.54,137.89-4.28Z"/>
            <path class="cls-5" d="M997.07,333.32s-56.71,6.56-72.94,5.86c-16.24-.69-1.76-2.9-1.76-2.9,0,0-112.95-.69-115.77,2.96-2.82,3.65,136.71,6.27,190.48-5.91Z"/>
            <path class="cls-10" d="M614.07,345.48c.77,3.98-56.21,7.68-67.45,4.54-11.24-3.14-14.31-1.68-14.31-1.68,0,0,18.4,8.85-70.01,8.15-88.41-.7-91.98-6.47-91.98-6.47l-63.88-1.5,91.22-.7s-14.05.52-1.53,3.19c12.52,2.67,108.85,8.76,106.04,1.73-2.81-7.03-46.76-5.86-46.76-5.86l120.85-1.4s-22.72-.31-22.74,2.57c-.02,2.88,52.31-.41,56.79-1.35,4.47-.94,3.77-1.22,3.77-1.22Z"/>
            <path class="cls-13" d="M912.33,389.02s-239.86-15.23-241.81-10.47c-1.94,4.76,30.31,7.61,0,10.47-30.31,2.85-195.87-4.73-202.01-5.69-6.13-.97-120.19,12.36-173.54,5.69-53.35-6.66-37.25-11.39-37.25-11.39,0,0-132.38,9.49-160.09,6.63-27.71-2.86,42.34-6.63,42.34-6.63l-188.86-5.93,4.46,53.48,962.89-5.71-6.13-30.45Z"/>
            <path class="cls-8" d="M651.2,377.28c-1.78-.66-77.42-4.76-77.67-3.17-.26,1.59,106.04,13.64,77.67,3.17Z"/>
            <path class="cls-3" d="M903,364.06s-146.02,2.43-146.53,5.29c-.51,2.86,152.71,6.87,152.71,6.87l-6.17-12.16Z"/>
            <path class="cls-8" d="M749.06,368.72c.13,1.9-60.94,5.08-62.22,1.9-1.28-3.17,37.18-2.54,37.18-2.54,0,0-22.36-.63-22.23-1.59.13-.95,47.27,2.22,47.27,2.22Z"/>
            <path class="cls-8" d="M574.29,376.38s8.43,1.95,7.54,4.06c-.89,2.11-45.22,1.16-45.1,0,.13-1.16,48.29,3.1,37.56-4.06Z"/>
            <ellipse class="cls-12" cx="547.21" cy="375.67" rx="7.67" ry=".71"/>
            <path class="cls-8" d="M636.8,371.54c0,.43,3.36.77,7.49.77s7.49-.35,7.49-.77-3.36-.77-7.49-.77-7.49.35-7.49.77Z"/>
            <path class="cls-1" d="M520.12,371.16c0,.21,1.14.39,2.56.39s2.55-.17,2.55-.39-1.14-.39-2.55-.39-2.56.17-2.56.39Z"/>
            <path class="cls-8" d="M455.62,363.15c0,.78,6.02,1.41,13.46,1.41s13.46-.63,13.46-1.41-6.02-1.41-13.46-1.41-13.46.63-13.46,1.41Z"/>
            <path class="cls-8" d="M227.5,369.73c0,.39,3.43.71,7.67.71s7.67-.32,7.67-.71-3.43-.71-7.67-.71-7.67.32-7.67.71Z"/>
            <path class="cls-1" d="M355.56,379.92c0,.15.44.28.99.28s.99-.12.99-.28-.44-.28-.99-.28-.99.12-.99.28Z"/>
            <path class="cls-1" d="M208.09,365.22c0,.21,1.14.39,2.56.39s2.55-.17,2.55-.39-1.14-.39-2.55-.39-2.56.17-2.56.39Z"/>
            <path class="cls-8" d="M145.06,364.62c0,.78,6.02,1.41,13.46,1.41s13.46-.63,13.46-1.41-6.02-1.41-13.46-1.41-13.46.63-13.46,1.41Z"/>
            <path class="cls-8" d="M140.31,371.93c0,.39,3.43.71,7.67.71s7.67-.32,7.67-.71-3.43-.71-7.67-.71-7.67.32-7.67.71Z"/>
            <path class="cls-1" d="M301.38,376.98c0,.13.42.23.93.23s.93-.1.93-.23-.42-.23-.93-.23-.93.1-.93.23Z"/>
            <path class="cls-8" d="M120.89,367.42c0,.21,1.14.39,2.56.39s2.55-.17,2.55-.39-1.14-.39-2.55-.39-2.56.17-2.56.39Z"/>
            <path class="cls-8" d="M57.87,366.82c0,.78,6.02,1.41,13.46,1.41s13.46-.63,13.46-1.41-6.02-1.41-13.46-1.41-13.46.63-13.46,1.41Z"/>
            <path class="cls-8" d="M262.85,397.06c0,.78,6.02,1.41,13.46,1.41s13.46-.63,13.46-1.41-6.02-1.41-13.46-1.41-13.46.63-13.46,1.41Z"/>
            <ellipse class="cls-11" cx="189.12" cy="399.26" rx="13.46" ry="1.41"/>
            <path class="cls-8" d="M509.89,392.36c0,1.13,8.73,2.05,19.5,2.05s19.5-.92,19.5-2.05-8.73-2.05-19.5-2.05-19.5.92-19.5,2.05Z"/>
            <path class="cls-8" d="M616.7,400.15c0,.49,3.78.89,8.45.89s8.45-.4,8.45-.89-3.78-.89-8.45-.89-8.45.4-8.45.89Z"/>
            <path class="cls-8" d="M383.53,395.55c0,1.13,8.73,2.05,19.5,2.05s19.5-.92,19.5-2.05-8.73-2.05-19.5-2.05-19.5.92-19.5,2.05Z"/>
            <path class="cls-4" d="M-11.84,351l127.41,2.33s-73.59-1.33-76.99,3.19c-3.41,4.52,22.14,4.86,22.14,4.86l-83.12,1.82,10.56-12.21Z"/>
            <g>
              <path class="cls-9" d="M281.54,333.1s98.3,4.02,143.96,1.67l-143.96-1.67Z"/>
              <path class="cls-9" d="M300.01,348.13s55.73,1.86,112.35-.39l-112.35.39Z"/>
              <path class="cls-9" d="M297.21,307.5s48.48,3.44,100.98-.65l-100.98.65Z"/>
              <path class="cls-9" d="M338.62,355.95l39.49.23s-15.85,1.55-39.49-.23Z"/>
              <path class="cls-9" d="M416.64,316.12l-50.35,1.62,94.7,3.79h-183.56l172.34,2s-44.43,7.26-155.74,7.26l126.12,2.3s-82.21,2.57-131.65-2.3c0,0,84.98-1.97,101.36-4.32l-139.36-4.02,26.48-1.44,19.52-2.35-22.82-1.52,142.96-1.01Z"/>
              <ellipse class="cls-7" cx="351.97" cy="330.5" rx="89.03" ry="45.72"/>
              <path class="cls-9" d="M415.68,346.66s7.15-1.21,14.56,0h-14.56Z"/>
              <path class="cls-9" d="M333.19,310.54s7.15-1.21,14.56,0h-14.56Z"/>
              <path class="cls-9" d="M380.65,355.95s3.38-1.49,6.96,0h-6.96Z"/>
              <path class="cls-9" d="M334.72,340.38s60.45-.83,64.03.66l-64.03-.66Z"/>
              <path class="cls-9" d="M350.04,314.79s3.38-1.49,6.96,0h-6.96Z"/>
              <path class="cls-9" d="M320.51,315.07s16.38-1.38,25.36,0c0,0-6.73,1.5-25.36,0Z"/>
              <path class="cls-9" d="M427.78,334.82s10.77-.61,14.36.15c0,0-2.47.68-14.36-.15Z"/>
            </g>
          </g>
        </g>
      </g>
    </g>
  </g>
</svg>