<?xml version="1.0" encoding="UTF-8"?>
<svg xmlns="http://www.w3.org/2000/svg" xmlns:xlink="http://www.w3.org/1999/xlink" viewBox="0 0 888.89 400">
  <defs>
    <style>
      .cls-1 {
        fill: url(#_Áåçûìÿííûé_ãðàäèåíò_173-3);
      }

      .cls-1, .cls-2, .cls-3, .cls-4, .cls-5, .cls-6, .cls-7, .cls-8, .cls-9, .cls-10, .cls-11, .cls-12, .cls-13, .cls-14, .cls-15, .cls-16, .cls-17, .cls-18, .cls-19, .cls-20, .cls-21, .cls-22, .cls-23, .cls-24, .cls-25, .cls-26, .cls-27, .cls-28, .cls-29, .cls-30, .cls-31, .cls-32, .cls-33, .cls-34, .cls-35, .cls-36, .cls-37, .cls-38, .cls-39, .cls-40, .cls-41, .cls-42, .cls-43, .cls-44, .cls-45, .cls-46, .cls-47, .cls-48, .cls-49, .cls-50, .cls-51, .cls-52, .cls-53 {
        stroke-width: 0px;
      }

      .cls-1, .cls-2, .cls-3, .cls-4, .cls-5, .cls-6, .cls-7, .cls-8, .cls-9, .cls-10, .cls-11, .cls-12, .cls-13, .cls-14, .cls-16, .cls-17, .cls-18, .cls-19, .cls-20, .cls-21, .cls-22, .cls-23, .cls-24, .cls-25, .cls-26, .cls-27, .cls-28, .cls-29, .cls-31, .cls-32, .cls-33, .cls-34, .cls-35, .cls-36, .cls-37, .cls-38, .cls-39, .cls-40, .cls-41, .cls-42, .cls-43, .cls-44, .cls-45, .cls-46, .cls-47, .cls-48, .cls-49, .cls-50, .cls-52, .cls-53 {
        fill-rule: evenodd;
      }

      .cls-2 {
        fill: url(#_Áåçûìÿííûé_ãðàäèåíò_176-11);
      }

      .cls-3 {
        fill: url(#_Áåçûìÿííûé_ãðàäèåíò_428-10);
      }

      .cls-3, .cls-8, .cls-11, .cls-16, .cls-19, .cls-21, .cls-24, .cls-26, .cls-27, .cls-29, .cls-30, .cls-40 {
        mix-blend-mode: multiply;
      }

      .cls-4 {
        fill: url(#_Áåçûìÿííûé_ãðàäèåíò_176-15);
      }

      .cls-5 {
        fill: url(#_Áåçûìÿííûé_ãðàäèåíò_254-3);
      }

      .cls-5, .cls-6, .cls-33, .cls-38, .cls-39, .cls-44, .cls-47, .cls-50 {
        mix-blend-mode: screen;
      }

      .cls-6 {
        fill: url(#_Áåçûìÿííûé_ãðàäèåíò_254-4);
      }

      .cls-7 {
        fill: url(#_Áåçûìÿííûé_ãðàäèåíò_176-3);
      }

      .cls-8 {
        fill: url(#_Áåçûìÿííûé_ãðàäèåíò_428-5);
      }

      .cls-9 {
        fill: #fdc580;
      }

      .cls-54 {
        isolation: isolate;
      }

      .cls-10 {
        fill: url(#_Áåçûìÿííûé_ãðàäèåíò_176-14);
      }

      .cls-11 {
        fill: url(#_Áåçûìÿííûé_ãðàäèåíò_428-13);
      }

      .cls-12 {
        fill: url(#_Áåçûìÿííûé_ãðàäèåíò_428);
      }

      .cls-13 {
        fill: url(#_Áåçûìÿííûé_ãðàäèåíò_176-6);
      }

      .cls-14 {
        fill: url(#_Áåçûìÿííûé_ãðàäèåíò_176-10);
      }

      .cls-15 {
        fill: none;
      }

      .cls-16 {
        fill: url(#_Áåçûìÿííûé_ãðàäèåíò_428-8);
      }

      .cls-17 {
        fill: url(#_Áåçûìÿííûé_ãðàäèåíò_428-4);
      }

      .cls-18 {
        fill: url(#_Áåçûìÿííûé_ãðàäèåíò_173-5);
      }

      .cls-19 {
        fill: url(#_Áåçûìÿííûé_ãðàäèåíò_428-14);
      }

      .cls-20, .cls-51 {
        fill: #dfe6fb;
      }

      .cls-21 {
        fill: url(#_Áåçûìÿííûé_ãðàäèåíò_428-9);
      }

      .cls-22 {
        fill: url(#_Áåçûìÿííûé_ãðàäèåíò_176-9);
      }

      .cls-23 {
        fill: url(#_Áåçûìÿííûé_ãðàäèåíò_176-13);
      }

      .cls-24 {
        fill: url(#_Áåçûìÿííûé_ãðàäèåíò_428-6);
      }

      .cls-25 {
        fill: url(#_Áåçûìÿííûé_ãðàäèåíò_428-2);
      }

      .cls-26 {
        fill: url(#_Áåçûìÿííûé_ãðàäèåíò_428-15);
      }

      .cls-27 {
        fill: url(#_Áåçûìÿííûé_ãðàäèåíò_428-11);
      }

      .cls-28 {
        fill: url(#_Áåçûìÿííûé_ãðàäèåíò_176-20);
      }

      .cls-29 {
        fill: url(#_Áåçûìÿííûé_ãðàäèåíò_428-7);
      }

      .cls-30 {
        fill: #56a1fd;
        opacity: .15;
      }

      .cls-31 {
        fill: url(#_Áåçûìÿííûé_ãðàäèåíò_173-2);
      }

      .cls-32 {
        fill: url(#_Áåçûìÿííûé_ãðàäèåíò_176-7);
      }

      .cls-33 {
        fill: url(#_Áåçûìÿííûé_ãðàäèåíò_254-6);
      }

      .cls-34 {
        fill: url(#_Áåçûìÿííûé_ãðàäèåíò_173-4);
      }

      .cls-35 {
        fill: url(#_Áåçûìÿííûé_ãðàäèåíò_176-4);
      }

      .cls-36 {
        fill: url(#_Áåçûìÿííûé_ãðàäèåíò_176-16);
      }

      .cls-55 {
        clip-path: url(#clippath);
      }

      .cls-37 {
        fill: url(#_Áåçûìÿííûé_ãðàäèåíò_176-17);
      }

      .cls-38 {
        fill: url(#_Áåçûìÿííûé_ãðàäèåíò_254);
      }

      .cls-39 {
        fill: url(#_Áåçûìÿííûé_ãðàäèåíò_254-8);
      }

      .cls-40 {
        fill: url(#_Áåçûìÿííûé_ãðàäèåíò_428-12);
      }

      .cls-41 {
        fill: url(#_Áåçûìÿííûé_ãðàäèåíò_176-5);
      }

      .cls-42 {
        fill: url(#_Áåçûìÿííûé_ãðàäèåíò_176-12);
      }

      .cls-43 {
        fill: url(#_Áåçûìÿííûé_ãðàäèåíò_173);
      }

      .cls-44 {
        fill: url(#_Áåçûìÿííûé_ãðàäèåíò_254-7);
      }

      .cls-45 {
        fill: url(#_Áåçûìÿííûé_ãðàäèåíò_176-19);
      }

      .cls-46 {
        fill: url(#_Áåçûìÿííûé_ãðàäèåíò_176-2);
      }

      .cls-47 {
        fill: url(#_Áåçûìÿííûé_ãðàäèåíò_254-2);
      }

      .cls-48 {
        fill: url(#_Áåçûìÿííûé_ãðàäèåíò_428-3);
      }

      .cls-49 {
        fill: url(#_Áåçûìÿííûé_ãðàäèåíò_176-18);
      }

      .cls-50 {
        fill: url(#_Áåçûìÿííûé_ãðàäèåíò_254-5);
      }

      .cls-52 {
        fill: url(#_Áåçûìÿííûé_ãðàäèåíò_176-8);
      }

      .cls-53 {
        fill: url(#_Áåçûìÿííûé_ãðàäèåíò_176);
      }
    </style>
    <clipPath id="clippath">
      <rect class="cls-15" width="888.89" height="400" transform="translate(888.89 400) rotate(180)"/>
    </clipPath>
    <linearGradient id="_Áåçûìÿííûé_ãðàäèåíò_173" data-name="Áåçûìÿííûé ãðàäèåíò 173" x1="194.53" y1="224.32" x2="170.48" y2="138.99" gradientTransform="translate(-79.49 -52.15) rotate(2.1)" gradientUnits="userSpaceOnUse">
      <stop offset="0" stop-color="#c5b4fd"/>
      <stop offset=".19" stop-color="#ccc9fd"/>
      <stop offset=".4" stop-color="#d2d9fd"/>
      <stop offset=".64" stop-color="#d5e2fd"/>
      <stop offset=".95" stop-color="#d7e6fd"/>
    </linearGradient>
    <linearGradient id="_Áåçûìÿííûé_ãðàäèåíò_176" data-name="Áåçûìÿííûé ãðàäèåíò 176" x1="153.59" y1="182.31" x2="144.89" y2="151.43" gradientTransform="translate(-79.49 -52.15) rotate(2.1)" gradientUnits="userSpaceOnUse">
      <stop offset="0" stop-color="#e9e9fd"/>
      <stop offset=".17" stop-color="#f0ecfd"/>
      <stop offset=".53" stop-color="#f9f1fe"/>
      <stop offset="1" stop-color="#fdf3ff"/>
    </linearGradient>
    <linearGradient id="_Áåçûìÿííûé_ãðàäèåíò_176-2" data-name="Áåçûìÿííûé ãðàäèåíò 176" x1="183.13" y1="182.35" x2="179.67" y2="170.06" xlink:href="#_Áåçûìÿííûé_ãðàäèåíò_176"/>
    <linearGradient id="_Áåçûìÿííûé_ãðàäèåíò_173-2" data-name="Áåçûìÿííûé ãðàäèåíò 173" x1="688.22" y1="378.08" x2="633.55" y2="159.41" gradientTransform="translate(-62.98 -182.92) rotate(4.19)" xlink:href="#_Áåçûìÿííûé_ãðàäèåíò_173"/>
    <linearGradient id="_Áåçûìÿííûé_ãðàäèåíò_176-3" data-name="Áåçûìÿííûé ãðàäèåíò 176" x1="752.55" y1="240.21" x2="751.86" y2="188.95" gradientTransform="translate(-62.98 -182.92) rotate(4.19)" xlink:href="#_Áåçûìÿííûé_ãðàäèåíò_176"/>
    <linearGradient id="_Áåçûìÿííûé_ãðàäèåíò_176-4" data-name="Áåçûìÿííûé ãðàäèåíò 176" x1="761.64" y1="144.8" x2="748.28" y2="61.09" gradientTransform="translate(-64)" xlink:href="#_Áåçûìÿííûé_ãðàäèåíò_176"/>
    <linearGradient id="_Áåçûìÿííûé_ãðàäèåíò_176-5" data-name="Áåçûìÿííûé ãðàäèåíò 176" x1="840" y1="273.13" x2="839.9" y2="265.35" gradientTransform="translate(-62.98 -182.92) rotate(4.19)" xlink:href="#_Áåçûìÿííûé_ãðàäèåíò_176"/>
    <linearGradient id="_Áåçûìÿííûé_ãðàäèåíò_176-6" data-name="Áåçûìÿííûé ãðàäèåíò 176" x1="845.08" y1="260.59" x2="844.85" y2="243.75" gradientTransform="translate(-62.98 -182.92) rotate(4.19)" xlink:href="#_Áåçûìÿííûé_ãðàäèåíò_176"/>
    <linearGradient id="_Áåçûìÿííûé_ãðàäèåíò_176-7" data-name="Áåçûìÿííûé ãðàäèåíò 176" x1="674.83" y1="231.9" x2="674.52" y2="208.81" gradientTransform="translate(-62.98 -182.92) rotate(4.19)" xlink:href="#_Áåçûìÿííûé_ãðàäèåíò_176"/>
    <linearGradient id="_Áåçûìÿííûé_ãðàäèåíò_176-8" data-name="Áåçûìÿííûé ãðàäèåíò 176" x1="545.05" y1="84.45" x2="516.96" y2="8.62" gradientTransform="translate(-64)" xlink:href="#_Áåçûìÿííûé_ãðàäèåíò_176"/>
    <linearGradient id="_Áåçûìÿííûé_ãðàäèåíò_176-9" data-name="Áåçûìÿííûé ãðàäèåíò 176" x1="443.3" y1="291.09" x2="442.69" y2="245.73" gradientTransform="translate(-62.98 -182.92) rotate(4.19)" xlink:href="#_Áåçûìÿííûé_ãðàäèåíò_176"/>
    <linearGradient id="_Áåçûìÿííûé_ãðàäèåíò_176-10" data-name="Áåçûìÿííûé ãðàäèåíò 176" x1="595.22" y1="242.47" x2="572.23" y2="185.43" gradientTransform="translate(-62.98 -182.92) rotate(4.19)" xlink:href="#_Áåçûìÿííûé_ãðàäèåíò_176"/>
    <linearGradient id="_Áåçûìÿííûé_ãðàäèåíò_173-3" data-name="Áåçûìÿííûé ãðàäèåíò 173" x1="571.07" y1="404.39" x2="549.43" y2="319" gradientTransform="translate(-62.98 -182.92) rotate(4.19)" xlink:href="#_Áåçûìÿííûé_ãðàäèåíò_173"/>
    <linearGradient id="_Áåçûìÿííûé_ãðàäèåíò_176-11" data-name="Áåçûìÿííûé ãðàäèåíò 176" x1="484.41" y1="166.53" x2="422.2" y2="11.7" gradientTransform="translate(-64)" xlink:href="#_Áåçûìÿííûé_ãðàäèåíò_176"/>
    <linearGradient id="_Áåçûìÿííûé_ãðàäèåíò_176-12" data-name="Áåçûìÿííûé ãðàäèåíò 176" x1="559.59" y1="316.16" x2="555.47" y2="299.92" gradientTransform="translate(-62.98 -182.92) rotate(4.19)" xlink:href="#_Áåçûìÿííûé_ãðàäèåíò_176"/>
    <linearGradient id="_Áåçûìÿííûé_ãðàäèåíò_173-4" data-name="Áåçûìÿííûé ãðàäèåíò 173" x1="333.57" y1="398.06" x2="310.77" y2="306.85" gradientTransform="translate(-46.05 -260.08) rotate(5.91)" xlink:href="#_Áåçûìÿííûé_ãðàäèåíò_173"/>
    <linearGradient id="_Áåçûìÿííûé_ãðàäèåíò_176-13" data-name="Áåçûìÿííûé ãðàäèåíò 176" x1="257.27" y1="345.11" x2="244.44" y2="277.1" gradientTransform="translate(-46.05 -260.08) rotate(5.91)" xlink:href="#_Áåçûìÿííûé_ãðàäèåíò_176"/>
    <linearGradient id="_Áåçûìÿííûé_ãðàäèåíò_176-14" data-name="Áåçûìÿííûé ãðàäèåíò 176" x1="292.97" y1="356.77" x2="288.96" y2="335.53" gradientTransform="translate(-46.05 -260.08) rotate(5.91)" xlink:href="#_Áåçûìÿííûé_ãðàäèåíò_176"/>
    <linearGradient id="_Áåçûìÿííûé_ãðàäèåíò_176-15" data-name="Áåçûìÿííûé ãðàäèåíò 176" x1="309.31" y1="356.95" x2="307.95" y2="349.76" gradientTransform="translate(-46.05 -260.08) rotate(5.91)" xlink:href="#_Áåçûìÿííûé_ãðàäèåíò_176"/>
    <linearGradient id="_Áåçûìÿííûé_ãðàäèåíò_176-16" data-name="Áåçûìÿííûé ãðàäèåíò 176" x1="364.77" y1="354.84" x2="362.07" y2="340.53" gradientTransform="translate(-46.05 -260.08) rotate(5.91)" xlink:href="#_Áåçûìÿííûé_ãðàäèåíò_176"/>
    <linearGradient id="_Áåçûìÿííûé_ãðàäèåíò_254" data-name="Áåçûìÿííûé ãðàäèåíò 254" x1="894.01" y1="277.06" x2="893.98" y2="275.96" gradientTransform="translate(-108.08 -129.15) rotate(5.15)" gradientUnits="userSpaceOnUse">
      <stop offset="0" stop-color="#000"/>
      <stop offset=".99" stop-color="#70bbb1"/>
    </linearGradient>
    <linearGradient id="_Áåçûìÿííûé_ãðàäèåíò_254-2" data-name="Áåçûìÿííûé ãðàäèåíò 254" x1="896.47" y1="274.89" x2="896.47" y2="274.75" xlink:href="#_Áåçûìÿííûé_ãðàäèåíò_254"/>
    <linearGradient id="_Áåçûìÿííûé_ãðàäèåíò_254-3" data-name="Áåçûìÿííûé ãðàäèåíò 254" x1="896.85" y1="274.66" x2="896.85" y2="274.61" xlink:href="#_Áåçûìÿííûé_ãðàäèåíò_254"/>
    <linearGradient id="_Áåçûìÿííûé_ãðàäèåíò_254-4" data-name="Áåçûìÿííûé ãðàäèåíò 254" x1="897" y1="274.63" x2="897" y2="274.58" xlink:href="#_Áåçûìÿííûé_ãðàäèåíò_254"/>
    <linearGradient id="_Áåçûìÿííûé_ãðàäèåíò_254-5" data-name="Áåçûìÿííûé ãðàäèåíò 254" x1="894.15" y1="281.06" x2="894.03" y2="277.5" xlink:href="#_Áåçûìÿííûé_ãðàäèåíò_254"/>
    <linearGradient id="_Áåçûìÿííûé_ãðàäèåíò_254-6" data-name="Áåçûìÿííûé ãðàäèåíò 254" x1="896.49" y1="275.39" x2="896.47" y2="274.94" xlink:href="#_Áåçûìÿííûé_ãðàäèåíò_254"/>
    <linearGradient id="_Áåçûìÿííûé_ãðàäèåíò_254-7" data-name="Áåçûìÿííûé ãðàäèåíò 254" x1="896.94" y1="275.05" x2="896.93" y2="274.76" xlink:href="#_Áåçûìÿííûé_ãðàäèåíò_254"/>
    <linearGradient id="_Áåçûìÿííûé_ãðàäèåíò_254-8" data-name="Áåçûìÿííûé ãðàäèåíò 254" x1="897.07" y1="274.7" x2="897.06" y2="274.6" xlink:href="#_Áåçûìÿííûé_ãðàäèåíò_254"/>
    <linearGradient id="_Áåçûìÿííûé_ãðàäèåíò_176-17" data-name="Áåçûìÿííûé ãðàäèåíò 176" x1="228.47" y1="203.23" x2="225.28" y2="150.66" gradientTransform="translate(-64)" xlink:href="#_Áåçûìÿííûé_ãðàäèåíò_176"/>
    <linearGradient id="_Áåçûìÿííûé_ãðàäèåíò_176-18" data-name="Áåçûìÿííûé ãðàäèåíò 176" x1="180.64" y1="178.8" x2="179.72" y2="163.68" gradientTransform="translate(-64)" xlink:href="#_Áåçûìÿííûé_ãðàäèåíò_176"/>
    <linearGradient id="_Áåçûìÿííûé_ãðàäèåíò_173-5" data-name="Áåçûìÿííûé ãðàäèåíò 173" x1="893.84" y1="154.7" x2="868.55" y2="56.36" gradientTransform="translate(-64)" xlink:href="#_Áåçûìÿííûé_ãðàäèåíò_173"/>
    <linearGradient id="_Áåçûìÿííûé_ãðàäèåíò_176-19" data-name="Áåçûìÿííûé ãðàäèåíò 176" x1="817.3" y1="78.06" x2="816.45" y2="100.22" gradientTransform="translate(-64)" xlink:href="#_Áåçûìÿííûé_ãðàäèåíò_176"/>
    <linearGradient id="_Áåçûìÿííûé_ãðàäèåíò_176-20" data-name="Áåçûìÿííûé ãðàäèåíò 176" x1="892.71" y1="82.18" x2="885.93" y2="55.27" gradientTransform="translate(-64)" xlink:href="#_Áåçûìÿííûé_ãðàäèåíò_176"/>
    <linearGradient id="_Áåçûìÿííûé_ãðàäèåíò_428" data-name="Áåçûìÿííûé ãðàäèåíò 428" x1="161.85" y1="151.04" x2="161.85" y2="107.36" gradientTransform="translate(-64)" gradientUnits="userSpaceOnUse">
      <stop offset="0" stop-color="#fd3c5c"/>
      <stop offset="1" stop-color="#8710b1"/>
    </linearGradient>
    <linearGradient id="_Áåçûìÿííûé_ãðàäèåíò_428-2" data-name="Áåçûìÿííûé ãðàäèåíò 428" x1="552.84" y1="192.69" x2="552.84" y2="9.34" xlink:href="#_Áåçûìÿííûé_ãðàäèåíò_428"/>
    <linearGradient id="_Áåçûìÿííûé_ãðàäèåíò_428-3" data-name="Áåçûìÿííûé ãðàäèåíò 428" x1="524.01" y1="184.96" x2="524.01" y2="184.94" xlink:href="#_Áåçûìÿííûé_ãðàäèåíò_428"/>
    <linearGradient id="_Áåçûìÿííûé_ãðàäèåíò_428-4" data-name="Áåçûìÿííûé ãðàäèåíò 428" x1="750.7" y1="228.42" x2="750.7" y2="196.56" xlink:href="#_Áåçûìÿííûé_ãðàäèåíò_428"/>
    <linearGradient id="_Áåçûìÿííûé_ãðàäèåíò_428-5" data-name="Áåçûìÿííûé ãðàäèåíò 428" x1="290.6" y1="226.62" x2="290.6" y2="208.61" xlink:href="#_Áåçûìÿííûé_ãðàäèåíò_428"/>
    <linearGradient id="_Áåçûìÿííûé_ãðàäèåíò_428-6" data-name="Áåçûìÿííûé ãðàäèåíò 428" x1="94.04" y1="276.81" x2="94.04" y2="249.08" xlink:href="#_Áåçûìÿííûé_ãðàäèåíò_428"/>
    <linearGradient id="_Áåçûìÿííûé_ãðàäèåíò_428-7" data-name="Áåçûìÿííûé ãðàäèåíò 428" x1="121.3" y1="255.36" x2="121.3" y2="240.64" xlink:href="#_Áåçûìÿííûé_ãðàäèåíò_428"/>
    <linearGradient id="_Áåçûìÿííûé_ãðàäèåíò_428-8" data-name="Áåçûìÿííûé ãðàäèåíò 428" x1="425.75" y1="291.85" x2="425.75" y2="176.17" xlink:href="#_Áåçûìÿííûé_ãðàäèåíò_428"/>
    <linearGradient id="_Áåçûìÿííûé_ãðàäèåíò_428-9" data-name="Áåçûìÿííûé ãðàäèåíò 428" x1="847.29" y1="289.47" x2="847.29" y2="219.59" xlink:href="#_Áåçûìÿííûé_ãðàäèåíò_428"/>
    <linearGradient id="_Áåçûìÿííûé_ãðàäèåíò_428-10" data-name="Áåçûìÿííûé ãðàäèåíò 428" x1="227.26" y1="188.61" x2="227.26" y2="171.68" xlink:href="#_Áåçûìÿííûé_ãðàäèåíò_428"/>
    <linearGradient id="_Áåçûìÿííûé_ãðàäèåíò_428-11" data-name="Áåçûìÿííûé ãðàäèåíò 428" x1="180.26" y1="174.68" x2="180.26" y2="169.66" xlink:href="#_Áåçûìÿííûé_ãðàäèåíò_428"/>
    <linearGradient id="_Áåçûìÿííûé_ãðàäèåíò_428-12" data-name="Áåçûìÿííûé ãðàäèåíò 428" x1="874.53" y1="96.66" x2="874.53" y2="54.4" xlink:href="#_Áåçûìÿííûé_ãðàäèåíò_428"/>
    <linearGradient id="_Áåçûìÿííûé_ãðàäèåíò_428-13" data-name="Áåçûìÿííûé ãðàäèåíò 428" x1="817.07" y1="87.4" x2="817.07" y2="78" xlink:href="#_Áåçûìÿííûé_ãðàäèåíò_428"/>
    <linearGradient id="_Áåçûìÿííûé_ãðàäèåíò_428-14" data-name="Áåçûìÿííûé ãðàäèåíò 428" x1="639.8" y1="218.19" x2="639.8" y2="200.56" xlink:href="#_Áåçûìÿííûé_ãðàäèåíò_428"/>
    <linearGradient id="_Áåçûìÿííûé_ãðàäèåíò_428-15" data-name="Áåçûìÿííûé ãðàäèåíò 428" x1="616.01" y1="215.94" x2="616.01" y2="211.69" xlink:href="#_Áåçûìÿííûé_ãðàäèåíò_428"/>
  </defs>
  <g class="cls-54">
    <g id="Layer_2" data-name="Layer 2">
      <g id="_4" data-name="4">
        <g class="cls-55">
          <g>
            <g>
              <path class="cls-43" d="M149.76,151.04s-.8-.06-2.26-.18h0c-14.29-1.18-91.8-7.9-100.88-15.49-.29-.23-.5-.47-.65-.71,0,0-.06-1.93.13-4.75.43-6.29,2.1-17.02,8.5-20.73,7.08-4.09,19.75-.6,26.67,3.99,2.16,1.42,3.75,2.95,4.45,4.39,2.92,6.06,3.03,12.52,3.03,12.52,0,0,4.31-8.79,10.98-4.19.26.18.51.37.74.57,0,0,.01.01.01.01,5.88,4.9,5.57,15.42,6.3,16.01.76.63,26.5,1.29,29.27,1.75,2.78.45,13.72,6.81,13.72,6.81Z"/>
              <path class="cls-53" d="M46.09,129.91c.43-6.29,2.1-17.02,8.5-20.73,7.08-4.09,19.75-.6,26.67,3.99,0,0,0,0,0,0,7,12.07-20.58,21.11-35.18,16.74Z"/>
              <path class="cls-46" d="M89.59,133.51c2.09,5.72,15.78-4.41,10.13-7.63-5.65-3.22-11.61,3.57-10.13,7.63Z"/>
            </g>
            <g>
              <path class="cls-31" d="M843.01,180.92l-18.09-1.3c-54-7.15-31.42-5.18-34.85-8.1,0,0,0,0-.02,0-.16-.13-.63-.26-1.39-.42-16.65-3.44-170.86-14.91-188.13-21.24-1.01-.37-1.56-.73-1.58-1.06-.29-5.43,12.72-22.56,16.29-27.15.56-.73.9-1.14.9-1.14,0,0-112.84-11.27-113.7-5.06-.85,6.2,16.22,14.82,5.85,12.95-65.45-11.82-80.77,5.66-84.05,11.79-.66,1.22,1.24,7.57,1.24,7.57l-50.82,2.36s-47.93-2.71-54.04-5.71c-.61-.3-.81-.6-.49-.9.38-.37.83-1.46,1.37-3.13,4.39-13.42,8.74-47.84,35.92-54.63,15.05-3.76,24.72-.75,30.65,3.28,2.5,1.7,4.34,3.57,5.64,5.19.42.51.8,1.01,1.11,1.5.03.05.06.1.1.15,1.01,1.5,1.43,2.53,1.43,2.53,0,0,.65-2.57,2.05-6.84,7.16-21.79,34.08-87.79,96.2-81.81,28.85,2.77,46.13,17.13,56.47,33.65,16.3,26.02,15.39,57.43,15.39,57.43,0,0,1.02-1.8,2.83-4.54,5.91-8.93,20.27-27.8,35.57-26.7,6.76.49,10.73,5.16,13.03,11.12v.03c4.48,11.69,2.54,28.33,2.54,28.33,0,0,1.08-2.61,3.15-6.75l.44-.86.32-.63c8.79-17.04,31.99-54.36,65.55-51.94,13.26.96,22.82,9.66,29.72,21.3,15.65,26.45,17.49,68.02,17.49,68.02,0,0,.73-1.62,2.18-3.94h0c4.48-7.17,15.82-20.99,33.87-14.62,4.14,1.45,7.43,3.87,10.09,6.88,12.73,14.39,11.05,42.45,18.18,45.18,8.62,3.31,18-6.75,24.2-1.61,6.21,5.14,17.37,10.87,17.37,10.87Z"/>
              <path class="cls-7" d="M719.63,70.15s0,0,0,.02c-2.47,29.73-38.08,42.81-92.02,38.93l-4.26-6.3.25-.51.44-.86.32-.63c8.79-17.04,31.99-54.36,65.55-51.94,13.26.96,22.82,9.66,29.72,21.3Z"/>
              <path class="cls-35" d="M660.36,143.25s25.46-27.58,49.76-21.35c24.31,6.23,23.67,17.81,23.67,17.81,0,0-16.53,8.42-73.43,3.54Z"/>
              <path class="cls-41" d="M744.13,147.4s3.61-5.79,9.55-6.25c5.94-.46,12,9.7,12,9.7,0,0-22.58,1.17-21.56-3.45Z"/>
              <path class="cls-13" d="M783.25,126.48c-2.45,3.92-6.33,7.81-12.41,10.02-15.62,5.68-31.55-2.28-31.55-2.28h0c4.48-7.17,15.82-20.99,33.87-14.62,4.14,1.45,7.43,3.87,10.09,6.88Z"/>
              <path class="cls-32" d="M569.3,96.26c5.91-8.93,20.27-27.8,35.57-26.7,6.76.49,10.73,5.16,13.03,11.12v.03c.86,12.95-22.75,16.78-48.6,15.55Z"/>
              <path class="cls-52" d="M487.97,65.78s-4.41,16.51-16.74,23.41c-12.33,6.9-62.6,10.52-72.81,2.34,7.16-21.79,34.08-87.79,96.2-81.81,28.85,2.77,46.13,17.13,56.47,33.65,2.72,25.75-63.12,22.41-63.12,22.41Z"/>
              <path class="cls-22" d="M385.94,118.34c-1.04,1.01-8.27-.6-8.27-.6,0,0,7.33-1.12-10.63,13.54-17.96,14.65-42.99,3.65-42.99,3.65h0c4.05-12.17,7.68-43.39,32.89-49.5,13.95-3.38,22.92-.64,28.43,3.02,2.16,1.62,3.95,3.21,5.24,4.71.39.47.74.92,1.03,1.36.03.04.06.09.09.13,7.51,11.69-4.73,22.69-5.77,23.68Z"/>
              <path class="cls-14" d="M486.97,103.55s1.94-29.15,24.42-28.87c22.48.28,24.18,17.06,24.18,17.06,0,0-2.39,13.79-48.6,11.81Z"/>
            </g>
            <g>
              <path class="cls-1" d="M459.64,176.4s1.39,12.85-1.04,14.01c-2.43,1.17-80.61-8.28-80.61-8.28l3.33-15.16,2.37-10.82s7.17-26.33,37.24-24.83c17.01.85,27.4,11.95,33.22,21.44h0c4.47,7.3,6.24,13.63,6.24,13.63,0,0,.1-.2.27-.55,0,0,0-.02,0-.02.22-.4.55-.99,1.01-1.66.04-.05.06-.07.06-.07,2.05-2.99,6.44-7.53,13.02-4.71,3.45,1.48,5.56,4.03,6.84,6.66h0c2.22,4.58,1.98,9.4,1.98,9.4,0,0,24.77-5.52,27.96-2.61,3.19,2.92,36.78,12.74,36.78,12.74l-88.68-9.17Z"/>
              <path class="cls-2" d="M454.14,152.77c.16,6.45-10.91,1.04-10.91,1.04,0,0-1.02,9.99-33.21,15.05-15.59,2.45-24.1.64-28.71-1.89l2.37-10.82s7.17-26.33,37.24-24.83c17.01.85,27.4,11.95,33.22,21.44h0Z"/>
              <path class="cls-42" d="M468.83,172.65c-9.38-.68-9.18-4.52-8.17-6.82,0,0,0-.02,0-.02.36-.83.84-1.46,1.01-1.66.04-.05.06-.07.06-.07,2.05-2.99,6.44-7.53,13.02-4.71,3.45,1.48,5.56,4.03,6.84,6.66h0c.03.34.49,7.58-12.77,6.62Z"/>
            </g>
            <g>
              <path class="cls-34" d="M345.3,147.27s-.04,0-.06,0c-.03,0-.05,0-.08,0-2.02.2-26.06,2.4-63.3-2.15-38.51-4.71-64.55-10.82-65.11-10.95.13.38,3.73,10.69-3.57,12.49-6.52,1.61-64.57,2.95-76.41-14.93-1.65-2.48-2.4-5.33-2.01-8.6,0,0,.01-1.31.12-3.48.42-8.8,2.29-31.68,10.55-37.92,8.57-6.46,47.9-12.41,64.26.1h0c3.28,2.51,5.64,5.76,6.63,9.9,5.96,24.76,1.87,33.62,1.87,33.62,0,0,5.89-5.95,10.94-3.94,5.05,2,4.31,11.77,4.31,11.77,0,0,25.48,6.84,33.26-.45,7.78-7.28,10.38-12,20.84-11.3,10.44.71,21,20.51,21,20.51l36.75,5.31Z"/>
              <path class="cls-23" d="M195.63,120.38c-8.7,7.07-42.23,5.7-53.47,3.63-3.48-.64-5.77-2.33-7.27-4.35.42-8.8,2.29-31.68,10.55-37.92,8.57-6.46,47.9-12.41,64.26.1h0c10.4,14.2-5.37,31.46-14.07,38.53Z"/>
              <path class="cls-10" d="M198.54,126.07s13.88,6.46,18.05,1.84c4.17-4.62,1.45-13.77-4.12-14.17-5.57-.4-13.93,12.33-13.93,12.33Z"/>
              <path class="cls-4" d="M222.6,128.52c4.3.44,9.41-2.68,6.61-5.08-2.8-2.41-15.18,4.21-6.61,5.08Z"/>
              <path class="cls-36" d="M271.77,133.53c10.9,2.03,24.24-3.63,18.39-9.18-5.85-5.55-20.53,4.01-21.17,7.86-.64,3.85,2.78,1.32,2.78,1.32Z"/>
            </g>
            <path class="cls-51" d="M635.18,289.55l-545.3,2.3s-1.12-2.02-1.48-9.09c-.43-8.19.88-17.4,8.54-18.96,6.67-1.35,15.46,2.12,22.93,6.19,8.53,4.65,15.33,10.09,15.33,10.09,0,0,1.7-4.54,5.13-8.74,3.58-4.42,9.07-8.45,16.49-6.5,2.63.7,5.4,1.75,8.15,3.01h0c12.14,5.58,24.11,15.2,24.57,15.57-.07-.44-2.31-12.05-1.52-23.79.94-13.76,6.04-27.73,23.61-24.21,15.61,3.12,27.99,11.91,36.69,20.26,9.6,9.24,14.71,17.96,14.71,17.96,0,0-.4-3.3-.74-8.68-1.53-24.42-1.81-91.76,42.09-88.7,33.55,2.35,61.7,31.34,78.03,52.65,9.74,12.72,15.29,22.7,15.29,22.7,0,0,1.12-6.62,3.96-12.26,0-.02.02-.04.02-.05,0,0,0-.02,0-.02,2.26-4.48,5.6-8.33,10.32-7.74,3.53.44,6.83,2.29,9.68,4.58t.02.02c5.75,4.63,9.61,11.03,9.61,11.03,0,0-2.11-17.28,8.28-26.49,0,0,.02-.02.02-.02,4.49-3.97,11.29-6.43,21.59-5.37,12.18,1.26,20.76,7.28,26.77,14.52h0c10.83,13.08,13.23,30.12,13.23,30.12,0,0,1.13-2.54,3.36-4.65,0,0,0-.02,0-.02,1.7-1.62,4.06-3,7.05-2.79,1.44.1,2.89,1.31,4.25,3.15,0,0,0,0,0,.02,5.2,6.96,9.47,22.97,9.47,22.97,0,0,1.83-13.81,9.72-24.05.02-.03.03-.05.03-.05,6.79-8.82,18.1-14.99,36.6-7.35,9.79,4.04,17.6,8.19,23.82,12.14,19.2,12.21,23.23,22.63,23.23,22.63,0,0,4.28-11.05,9.99-8.31,5.7,2.75,6.41,15.91,6.41,15.91Z"/>
            <path class="cls-51" d="M860.03,289.47l-152.55-2.34s-.62-3.35-.85-7.92c-.48-9.77.87-25.05,14.16-24.58,9.64.34,17.66,5.33,23.28,10.28,5.72,5.05,8.98,10.05,8.98,10.05,0,0,.28-1.76.92-3.64.02-.06.03-.1.04-.13,0-.04.02-.05.02-.05.85-2.4,2.29-4.91,4.53-4.13,1.22.42,2.47,1.39,3.59,2.56,2.65,2.68,4.74,6.33,4.74,6.33,0,0-.05-5.42.87-12.89,0-.09.02-.17.03-.25.02-.15.03-.26.04-.34,0-.04,0-.08.02-.12,2.24-17.44,9.73-45.13,34.67-42.55,7.9.82,14.67,4.1,20.42,8.73.03.02.06.05.08.06,20.47,16.56,27.99,50.16,27.99,50.16,0,0,1.42-3.75,4.76-1.41,3.32,2.35,4.27,12.17,4.27,12.17Z"/>
            <g>
              <path class="cls-20" d="M737.76,224.29c-5.61-6.56-18.97-1.93-34.21-1.4-12.58.42-5.52-12.37-16.97-20.69h0c-2.44-1.77-5.71-3.35-10.19-4.54-.14-.04-.28-.08-.42-.12-11.51-2.92-19.34,1.12-24.45,6.38-1.29,1.31-2.4,2.71-3.35,4.09-3.58,5.17-4.97,10.13-4.97,10.13,0,0,.12-2.8-2.94-2.88-3.06-.09-3.59,3.1-3.59,3.1,0,0-14.51-9.38-19.65-8.56-5.16.81-4.32,9.38-4.32,9.38l.78.61,29.4,1.67s-.43,3.34-.2,3.59c.22.26,53.83-.91,53.83-.91,0,0,2.64,3.55,8.76,4.21,5.7.6,48.91-3.03,54.94-3.55-.07,0-.14,0-.22,0l.36-.02h.16s.1-.02.1-.02c-2.57.13-21.55,1.04-22.84-.47ZM756.22,225.07l2.8-.19c-.74.05-1.69.12-2.8.19Z"/>
              <path class="cls-38" d="M756.22,225.07l2.8-.19c-.74.05-1.69.12-2.8.19Z"/>
              <path class="cls-47" d="M760.34,224.79s-.09.01-.14.02c-.07,0-.14,0-.22,0l.36-.02Z"/>
              <path class="cls-5" d="M760.6,224.76s0,0-.02,0c-.03,0-.06,0-.08,0h.1Z"/>
              <path class="cls-6" d="M760.75,224.75h0s-.1,0-.1,0c.04,0,.07,0,.1,0Z"/>
              <path class="cls-50" d="M756.22,225.07l2.8-.19c-.74.05-1.69.12-2.8.19Z"/>
              <path class="cls-33" d="M760.34,224.79s-.09.01-.14.02c-.07,0-.14,0-.22,0l.36-.02Z"/>
              <path class="cls-44" d="M760.75,224.76s-.1,0-.17.01c-.03,0-.06,0-.08,0h.1s.05-.01.05-.01h.1Z"/>
              <path class="cls-39" d="M760.78,224.75s-.02,0-.03,0h0s.03,0,.03,0Z"/>
            </g>
            <path class="cls-51" d="M226.74,226.31c-16.8-3.76-5.39-17.29,1.27-17.69,6.65-.4,12.67,20.81-1.27,17.69Z"/>
            <path class="cls-51" d="M8.18,270.84c17.43,8.42,49.74,9.05,49.11-5.3-.63-14.35-51.01-22.77-53.86-10.61-2.85,12.16,4.75,15.91,4.75,15.91Z"/>
            <path class="cls-30" d="M3.42,254.93c-2.85,12.17,4.76,15.91,4.76,15.91,17.42,8.42,49.75,9.04,49.11-5.31-.63-14.35-51-22.77-53.86-10.6ZM7.83,264.94s-5.32-2.62-3.32-11.14c1.99-8.52,37.28-2.62,37.73,7.43.44,10.05-22.2,9.61-34.41,3.71Z"/>
            <path class="cls-51" d="M50.16,251.96c-10.33-5.46,10.14-13.13,14.26-10.93,4.12,2.2,6.97,22.16-14.26,10.93Z"/>
            <path class="cls-30" d="M635.18,289.55l-545.3,2.3s-1.12-2.02-1.48-9.09c10.57,2.67,32.33,7.02,33.16-3.58.26-3.28-.45-6.37-1.68-9.18,8.53,4.65,15.33,10.09,15.33,10.09,0,0,1.7-4.54,5.13-8.74-1.19,5.06-2.67,16.87,9.89,15.55,21.24-2.24,32.75-8.36,14.75-19.02,12.14,5.57,24.11,15.19,24.57,15.56-.07-.44-2.31-12.05-1.52-23.79,3.02,9.88,29.95,33.21,63.9,23.75,10.81-3.01,3.45-20.18-3.6-27.7,9.6,9.24,14.71,17.96,14.71,17.96,0,0-.4-3.3-.74-8.68,6.67,8.29,19.48,15.67,43.33,18.1,62.25,6.37,89.04-26.8,76.79-54.16,9.74,12.72,15.29,22.7,15.29,22.7,0,0,1.12-6.62,3.96-12.26-.42,1.46-7.74,27.17,11.35,26.25,19.65-.93,18.34-19.93,8.69-29.46,5.75,4.63,9.61,11.03,9.61,11.03,0,0-2.11-17.28,8.28-26.49-.62.64-14.58,15.23-2.19,26.51,12.68,11.54,62.48,5.83,50.57-17.36,10.83,13.07,13.23,30.11,13.23,30.11,0,0,1.13-2.54,3.36-4.65-.21.67-5.8,18.24,6.67,18.43,12.49.17,4.91-17.44,4.64-18.06,5.2,6.96,9.47,22.97,9.47,22.97,0,0,1.83-13.81,9.72-24.05-.58,1.13-10.44,20.98,16.05,20.07,27.27-.93,30.34-11.23,30.34-11.23,0,0,3.58,12.79,14.04,10.3,10.45-2.5,0-14.39,0-14.39,19.2,12.21,23.23,22.63,23.23,22.63,0,0,4.28-11.05,9.99-8.31,5.7,2.75,6.41,15.91,6.41,15.91Z"/>
            <path class="cls-30" d="M860.03,289.47l-152.55-2.34s-.62-3.35-.85-7.92c16.18,8.14,50.39,5.9,37.43-14.3,5.72,5.05,8.98,10.05,8.98,10.05,0,0,.28-1.76.92-3.64-.29,1.13-1.62,7.32,5.07,6.68,7.37-.71,3.11-8.44,3.11-8.44,2.65,2.68,4.74,6.33,4.74,6.33,0,0-.05-5.42.87-12.89-.22,2.86.04,13.53,16.71,13.13,19.25-.47,26.14-23.94,26.14-23.94,0,0,15.04,7.58,18.54,4.99,5.74-4.25,7.11-17.67-5.95-28.48-.07-.06-.12-.1-.18-.16,20.47,16.56,27.99,50.16,27.99,50.16,0,0,1.42-3.75,4.76-1.41,3.32,2.35,4.27,12.17,4.27,12.17Z"/>
            <path class="cls-37" d="M162.04,186.97c-15.21-1.33-10.46-14.9-4.44-15.29,6.02-.39,10.36,15.29,10.36,15.29,0,0,1.05-3.98,4.21-3.43,3.17.55,2.38,5.07,2.38,5.07l-12.52-1.64Z"/>
            <path class="cls-49" d="M115.82,174.47c3.56.7,7.93-.33,3.89-3.67-4.04-3.34-14.55,1.57-3.89,3.67Z"/>
            <path class="cls-18" d="M843.02,94.06s-3.34,3.4-13.33,2.43c-27.12-2.66-22.34-6.48-22.34-6.48,0,0-29.78.45-30.42-2.35-.63-2.8,19.33-11.23,25.34-8.73,6.02,2.49,6.02,7.34,6.02,7.34,0,0,.59-3.18,1.92-7.53,2.98-9.74,9.65-25.36,21.69-24.28,2.24.2,4.1,1.01,5.61,2.26.8.66,1.51,1.44,2.13,2.33t.02.02c.52.74.99,1.55,1.41,2.41,0,.02.02.03.02.04,5.43,11.41,1.93,32.55,1.93,32.55Z"/>
            <path class="cls-45" d="M752.38,87.13c-8-1.49-5.26-5.61-.84-8.69,4.42-3.08,13.51,11.04.84,8.69Z"/>
            <path class="cls-28" d="M813.22,82.7c-1.34-.9-2.31-2.28-3-3.97,2.98-9.74,9.65-25.36,21.69-24.28,2.24.2,4.1,1.01,5.61,2.26.66.76,1.38,1.54,2.13,2.33t.02.02c.61.63,1.08,1.46,1.41,2.41,0,.02.02.03.02.04,3.42,9.98-7.87,34.65-27.88,21.19Z"/>
            <path class="cls-20" d="M565.2,211.51s-3.02-11.19,8.75-10.95,12.79,15.75,12.79,15.75c0,0-21.39,6.53-21.54-4.81Z"/>
            <path class="cls-20" d="M544.77,213.91s-2.52-2.68,5.5-2.15c8.02.53,9.36,4.11,9.36,4.11,0,0-14.28.63-14.86-1.97Z"/>
            <path class="cls-12" d="M46.61,135.36c9.09,7.59,86.59,14.31,100.88,15.49h0c1.46.12,2.26.18,2.26.18,0,0-10.94-6.36-13.72-6.81-2.77-.45-28.51-1.12-29.27-1.74-.73-.6-.41-11.12-6.3-16.01,0,0,0,0-.01-.01-.02-.02-.04-.03-.07-.05-.19-.19-.4-.37-.68-.52-6.67-4.6-10.98,4.19-10.98,4.19,0,0-.11-6.47-3.03-12.52-.69-1.44-2.29-2.97-4.45-4.39-6.92-4.59-19.59-8.08-26.67-3.99-6.4,3.71-8.07,14.44-8.5,20.73-.19,2.82-.13,4.75-.13,4.75.15.24.37.48.65.71Z"/>
            <path class="cls-25" d="M801.44,171.66c-7.13-2.73-5.45-30.79-18.18-45.18-2.66-3-5.95-5.42-10.09-6.88-18.05-6.37-29.38,7.46-33.87,14.62h0c-1.45,2.33-2.18,3.95-2.18,3.95,0,0-1.84-41.57-17.49-68.02-6.9-11.63-16.46-20.34-29.72-21.3-33.56-2.42-56.76,34.9-65.55,51.94l-.32.63-.44.86c-2.08,4.13-3.15,6.75-3.15,6.75,0,0,1.93-16.64-2.55-28.33v-.03c-2.3-5.97-6.26-10.63-13.03-11.12-15.3-1.1-29.66,17.77-35.57,26.7-1.81,2.73-2.83,4.54-2.83,4.54,0,0,.91-31.41-15.39-57.43-10.34-16.53-27.62-30.88-56.47-33.65-62.11-5.98-89.04,60.02-96.2,81.81-1.4,4.27-2.05,6.84-2.05,6.84,0,0-.42-1.03-1.43-2.53-.03-.05-.06-.1-.1-.15-.31-.49-.68-.99-1.11-1.5-1.29-1.62-3.14-3.49-5.64-5.19-3.64-2.48-8.71-4.56-15.56-4.93-4.33-.43-9.49-.13-15.6,1.36-9.76,2.37-16.27,8.5-20.84,15.83-8.92,13.08-11.74,30.44-14.57,39.1-.41,1.27-.77,2.2-1.08,2.74-.44.1-.56.23-.29.4-.05.04-.06.09-.08.13l-11.52-1.67s-10.55-19.8-21-20.51c-10.45-.71-13.06,4.01-20.84,11.3-7.78,7.29-33.26.45-33.26.45,0,0,.74-9.77-4.31-11.77-5.05-2.01-10.94,3.94-10.94,3.94,0,0,4.09-8.86-1.87-33.62-.99-4.14-3.35-7.39-6.63-9.89h0c-16.36-12.51-55.69-6.56-64.26-.11-8.26,6.23-10.13,29.11-10.55,37.92-.1,2.17-.12,3.48-.12,3.48-.39,3.27.36,6.12,2.01,8.6,11.85,17.88,69.9,16.54,76.41,14.93,7.29-1.8,3.7-12.11,3.57-12.49.56.13,26.6,6.24,65.11,10.95,20.36,2.49,36.76,2.96,47.79,2.84,15.87,5.72,36.87,6.25,55.17,5.1-.81,1.88-1.14,3.09-1.14,3.09l-2.37,10.82-3.33,15.16s.14.02.38.05c.05.38.19.79.44,1.21,2.55,4.36,79.94,10.69,81.73,9.03,1.44-1.34.05-8.36-.55-11.07-.01-.36-.03-.72-.05-1.06,2.71.14,35.41,1.81,44.66,2.33,9.35.53,41.56,2.79,43.61,2.93h.11s-.01,0-.02,0c0,0,.01,0,.01,0,0,0-.01,0-.01,0-.4-.12-33.59-9.83-36.76-12.73-3.19-2.91-27.96,2.61-27.96,2.61,0,0,.24-4.83-1.98-9.4h0c-1.28-2.64-3.39-5.19-6.84-6.67-6.58-2.81-10.98,1.72-13.02,4.71,0,0-.02.02-.06.07-.17.21-.64.83-1.01,1.66,0,0,0,0,0,.02-.18.35-.27.55-.27.55,0,0-1.77-6.33-6.24-13.62h0c-2.77-4.52-6.59-9.39-11.65-13.36,103.49-4.49,83.5-6.8,75.21-11.1-9.32-4.83-15.17-10.52-15.25-12.88.31-2.22,14.93-2.2,33.59-1.27,33.53,1.7,80.1,6.33,80.1,6.33,0,0-.33.41-.9,1.14-3.57,4.6-16.58,21.72-16.29,27.15.02.33.56.69,1.58,1.06,17.27,6.33,171.47,17.8,188.13,21.24.76.16,1.23.3,1.39.42,0,0,.02,0,.02,0,3.42,2.93-19.15.95,34.85,8.1l18.09,1.3s-11.16-5.73-17.37-10.87c-6.2-5.14-15.59,4.92-24.2,1.61Z"/>
            <path class="cls-48" d="M460.01,184.96s0-.02,0-.03v.03s0,0,0,0Z"/>
            <path class="cls-17" d="M760.34,224.79h.16s.06-.02.08-.02c.07,0,.12,0,.17-.01.01,0,.02,0,.03,0h-.03s-.07,0-.1,0h-.05c-2.57.14-21.55,1.05-22.84-.46-5.61-6.56-18.97-1.93-34.21-1.4-12.58.42-5.52-12.37-16.97-20.69h0c-2.44-1.77-5.71-3.35-10.19-4.54-.14-.04-.28-.08-.42-.12-11.51-2.92-19.34,1.12-24.45,6.38-1.29,1.31-2.4,2.71-3.35,4.09-3.58,5.17-4.97,10.13-4.97,10.13,0,0,.12-2.8-2.94-2.88-3.06-.09-3.59,3.1-3.59,3.1,0,0-14.51-9.38-19.65-8.56-5.16.81-4.32,9.38-4.32,9.38l.78.61,29.4,1.67s-.43,3.34-.2,3.59c.22.26,53.83-.91,53.83-.91,0,0,2.64,3.55,8.76,4.21,5.7.6,48.91-3.03,54.94-3.55.05,0,.1,0,.14-.02Z"/>
            <path class="cls-8" d="M228.01,208.62c-6.65.4-18.07,13.93-1.27,17.69,13.94,3.12,7.92-18.09,1.27-17.69Z"/>
            <path class="cls-24" d="M53.72,259.3c-11.64-10.24-47.88-14.63-50.29-4.37-1.07,4.55-.67,7.92.25,10.36,0,0,0,.01,0,.02.27.73.6,1.36.94,1.93.04.07.08.14.12.21.08.12.16.22.24.34,1.5,2.19,3.21,3.05,3.21,3.05,17.43,8.42,49.74,9.05,49.11-5.3-.1-2.24-1.41-4.34-3.57-6.24Z"/>
            <path class="cls-29" d="M64.42,241.03c-4.12-2.2-24.59,5.47-14.26,10.93,21.23,11.23,18.38-8.73,14.26-10.93Z"/>
            <path class="cls-16" d="M628.77,273.65c-5.71-2.74-9.99,8.31-9.99,8.31,0,0-4.03-10.42-23.23-22.63-6.22-3.95-14.03-8.1-23.82-12.14-18.49-7.64-29.8-1.48-36.6,7.35,0,0,0,.02-.03.05-7.88,10.24-9.72,24.05-9.72,24.05,0,0-4.27-16.01-9.47-22.97,0,0,0-.02,0-.02-1.37-1.84-2.81-3.05-4.25-3.15-2.99-.21-5.34,1.16-7.05,2.79,0,0,0,0,0,.02-2.23,2.12-3.36,4.65-3.36,4.65,0,0-2.4-17.03-13.23-30.11h0c-6-7.25-14.58-13.28-26.77-14.53-10.3-1.06-17.11,1.4-21.59,5.37,0,0,0,0-.02.02-10.4,9.21-8.28,26.49-8.28,26.49,0,0-3.85-6.4-9.61-11.03t-.02-.02c-2.85-2.29-6.15-4.14-9.68-4.58-4.72-.59-8.06,3.26-10.32,7.74,0,0,0,0,0,.02,0,0,0,.03-.02.05-2.85,5.64-3.96,12.26-3.96,12.26,0,0-5.55-9.99-15.29-22.7-16.33-21.31-44.48-50.3-78.03-52.65-43.89-3.06-43.61,64.28-42.09,88.7.34,5.38.74,8.68.74,8.68,0,0-5.11-8.72-14.71-17.96-8.7-8.35-21.08-17.13-36.69-20.26-17.57-3.52-22.67,10.44-23.61,24.21-.79,11.75,1.44,23.35,1.52,23.79-.46-.37-12.43-9.99-24.57-15.56h0c-2.75-1.27-5.52-2.33-8.15-3.02-7.42-1.95-12.91,2.08-16.49,6.5-3.42,4.2-5.13,8.74-5.13,8.74,0,0-6.8-5.43-15.33-10.09-7.47-4.08-16.26-7.54-22.93-6.19-7.66,1.56-8.97,10.77-8.54,18.96.36,7.06,1.48,9.09,1.48,9.09l545.3-2.3s-.72-13.16-6.41-15.91Z"/>
            <path class="cls-21" d="M855.76,277.3c-3.33-2.34-4.76,1.41-4.76,1.41,0,0-7.52-33.61-27.99-50.16-.03-.02-.06-.05-.08-.06-5.75-4.64-12.52-7.92-20.42-8.73-24.94-2.58-32.43,25.11-34.67,42.55,0,.04,0,.08-.02.12,0,.08-.02.19-.04.34,0,.07-.02.16-.03.25-.92,7.47-.87,12.89-.87,12.89,0,0-2.08-3.66-4.74-6.33-1.13-1.16-2.37-2.13-3.59-2.56-2.24-.78-3.69,1.73-4.53,4.13,0,0,0,.02-.02.05,0,.03-.02.07-.04.13-.64,1.88-.92,3.64-.92,3.64,0,0-3.26-5-8.98-10.05-5.62-4.95-13.64-9.94-23.28-10.28-13.29-.47-14.64,14.82-14.16,24.58.22,4.56.85,7.92.85,7.92l152.55,2.34s-.95-9.82-4.27-12.17Z"/>
            <path class="cls-3" d="M174.56,188.61s.79-4.52-2.38-5.07c-3.17-.55-4.21,3.43-4.21,3.43,0,0-4.34-15.67-10.36-15.29-6.02.39-10.77,13.96,4.44,15.29l12.52,1.64Z"/>
            <path class="cls-27" d="M115.82,174.47c3.56.7,7.93-.33,3.89-3.67-4.04-3.34-14.55,1.57-3.89,3.67Z"/>
            <path class="cls-40" d="M841.09,61.5s0-.02-.02-.04c-.33-.95-.79-1.78-1.41-2.41t-.02-.02c-.62-.89-1.33-1.67-2.13-2.33-1.52-1.26-3.37-2.06-5.61-2.26-12.03-1.08-18.71,14.54-21.69,24.28-1.33,4.35-1.92,7.53-1.92,7.53,0,0,0-4.85-6.02-7.34-6.01-2.5-25.98,5.93-25.34,8.73.63,2.8,30.42,2.35,30.42,2.35,0,0-4.78,3.82,22.34,6.48,9.99.97,13.33-2.43,13.33-2.43,0,0,3.5-21.15-1.93-32.55Z"/>
            <path class="cls-11" d="M752.38,87.13c12.67,2.35,3.59-11.77-.84-8.69-4.42,3.08-7.17,7.2.84,8.69Z"/>
            <path class="cls-19" d="M586.74,216.32s-1.02-15.51-12.79-15.75c-11.77-.24-8.75,10.95-8.75,10.95.16,11.34,21.54,4.81,21.54,4.81Z"/>
            <path class="cls-26" d="M559.63,215.88s-1.34-3.58-9.36-4.11c-8.02-.53-5.5,2.15-5.5,2.15.58,2.59,14.86,1.97,14.86,1.97Z"/>
            <path class="cls-9" d="M46.61,135.36l19.17,1.38-1.36-.94,36.77,6.31-7.93,1.94s46.11,5.79,54.23,6.8c-14.29-1.18-91.8-7.9-100.88-15.49Z"/>
            <path class="cls-9" d="M788.67,171.08c-16.65-3.44-170.86-14.91-188.13-21.24l-1.58-1.06,65.82,2.06s-7.94-3.25-7.8-5.03c.13-1.79,130.18,1.33,111.12,15.17-2.78,2.02,15.44,8.51,20.56,10.1Z"/>
            <path class="cls-9" d="M824.93,179.62c-54-7.15-31.42-5.18-34.85-8.1l34.85,8.1Z"/>
            <path class="cls-9" d="M615.26,121.63c.56-.73.9-1.14.9-1.14,0,0-113.91-11.32-113.7-5.06.08,2.36,5.93,8.04,15.25,12.88,8.75,4.54,30.55,6.86-93.44,11.87,0,0-28.87-7.87-28.48-13.2.4-5.34,31.12-4.02,31.12-4.02,0,0,76.84-6.55,71.21-8.29-54.18-16.73,70.06-.91,70.06-.91,0,0,33.68-8.87,43.42-5.35,9.73,3.51,24.44,13.52,24.44,13.52l-20.78-.29Z"/>
            <path class="cls-9" d="M320.15,143.49c-4.7-2.88,105.35,4.25,105.35,4.25,0,0-72.98,15.59-105.35-4.25Z"/>
            <path class="cls-9" d="M378.81,183.39c-4.09-6.97,19.71-8.87,37.88-7.56,18.17,1.31,43.32,9.13,43.32,9.13l-.59-10.08,24.07,3.97s17.4-1.88,25.42.79c8.02,2.67,39.4,5.91,39.4,5.91,0,0-34.06-2.39-43.71-2.94-9.65-.55-44.86-2.34-44.86-2.34,0,0,2.59,10.48.8,12.14-1.79,1.66-79.18-4.67-81.73-9.03Z"/>
            <path class="cls-9" d="M345.16,147.28c-2.02.2-26.06,2.4-63.3-2.15-38.51-4.71-64.55-10.82-65.11-10.95.13.38,3.73,10.69-3.57,12.49-6.52,1.61-64.57,2.95-76.41-14.93l65.74.99-6.21-4.35,54.67,10.58s28.64-2.1,38.49.98c9.77,3.04,50.28,7.72,55.7,7.34Z"/>
          </g>
        </g>
      </g>
    </g>
  </g>
</svg>